<svg height="512" viewBox="0 0 64 64" width="512" xmlns="http://www.w3.org/2000/svg"><path d="m7 21a4 4 0 0 0 -4 4v26a4 4 0 0 0 4 4h5a5.99 5.99 0 0 1 9-5.189v-28.811z" fill="#006df0"/><path d="m35 21h-14v28.811a6 6 0 0 1 3 5.189h15v-30a4 4 0 0 0 -4-4z" fill="#2488ff"/><path d="m39 55h5a6 6 0 0 1 12 0h3a2.006 2.006 0 0 0 2-2v-7a4 4 0 0 0 -4-4h-18z" fill="#006df0"/><path d="m51.006 29.514a4 4 0 0 0 -3.714-2.514h-8.292v15h17z" fill="#a7a9ac"/><path d="m41.5 31.5h5v1.999h-5z" fill="#f1f2f2" transform="matrix(.8 -.6 .6 .8 -10.7 32.889)"/><path d="m41 34h10v1.999h-10z" fill="#f1f2f2" transform="matrix(.8 -.6 .6 .8 -11.8 34.589)"/><circle cx="50" cy="55" fill="#58595b" r="6"/><circle cx="18" cy="55" fill="#58595b" r="6"/><circle cx="18" cy="55" fill="#f1f2f2" r="2"/><circle cx="50" cy="55" fill="#f1f2f2" r="2"/><path d="m20 27a1 1 0 0 0 -1 1v4a1 1 0 0 1 -1 1h-4a1 1 0 0 0 -1 1v2a1 1 0 0 0 1 1h4a1 1 0 0 1 1 1v4a1 1 0 0 0 1 1h1v-16z" fill="#e50000"/><path d="m28 33h-4a1 1 0 0 1 -1-1v-4a1 1 0 0 0 -1-1h-1v16h1a1 1 0 0 0 1-1v-4a1 1 0 0 1 1-1h4a1 1 0 0 0 1-1v-2a1 1 0 0 0 -1-1z" fill="#f00"/><path d="m17 19v2h4v-6a4 4 0 0 0 -4 4z" fill="#e50000"/><path d="m25 19a4 4 0 0 0 -4-4v6h4z" fill="#f00"/></svg>