<svg height="512" viewBox="0 0 64 64" width="512" xmlns="http://www.w3.org/2000/svg"><g id="Blood_donation" data-name="Blood donation"><path d="m23 7h-16a4 4 0 0 0 -4 4v20a4 4 0 0 0 4 4h16a4 4 0 0 0 4-4v-20a4 4 0 0 0 -4-4z" fill="#bddbff"/><path d="m25 62a11.013 11.013 0 0 1 -11-11v-9h2v9a9 9 0 0 0 18 0v-32a9 9 0 0 1 18 0v20h-2v-20a7 7 0 0 0 -14 0v32a11.013 11.013 0 0 1 -11 11z" fill="#a7a9ac"/><path d="m26.48 32.97a4.007 4.007 0 0 1 -3.48 2.03h-16a4 4 0 0 1 -4-4v-20a4 4 0 0 1 3.52-3.97 3.994 3.994 0 0 0 -.52 1.97v20a4 4 0 0 0 4 4h16a3.866 3.866 0 0 0 .48-.03z" fill="#9bc9ff"/><path d="m9 3h12v4h-12z" fill="#006df0"/><path d="m19 37v-2h-8v2a2 2 0 0 0 2 2h4a2 2 0 0 0 2-2z" fill="#006df0"/><path d="m17 41v-2h-4v2a2 2 0 0 0 4 0z" fill="#9bc9ff"/><path d="m54 31h-3-3v3h3 3z" fill="#006df0"/><path d="m41 51a10 10 0 0 0 10 10v-24s-10 8.48-10 14z" fill="#c00"/><path d="m51 37v24a10 10 0 0 0 10-10c0-5.52-10-14-10-14z" fill="#f00"/><path d="m49 46v3h-3v4h3v3h2v-10z" fill="#d1d3d4"/><path d="m53 49v-3h-2v10h2v-3h3v-4z" fill="#f1f2f2"/><path d="m19 16v-2h-3v-2h-2v23h2v-3h3v-2h-3v-2h3v-2h-3v-2h3v-2h-3v-2h3v-2h-3v-2z" fill="#a7a9ac"/></g></svg>