<svg height="511pt" viewBox="0 0 511.99901 511" width="511pt" xmlns="http://www.w3.org/2000/svg"><path d="m46.546875 378.941406c-80.464844 49.59375-23.605469 132.636719 87.980469 132.636719 69.433594 0 125.722656-34.640625 125.722656-77.371094 0-68.863281-134.960938-102.75-213.703125-55.265625zm0 0" fill="#ff4c4c"/><path d="m134.527344 483.769531c-61.722656 0-113.054688-27.371093-123.699219-63.464843-14.574219 49.394531 48.289063 91.273437 123.699219 91.273437 76.847656 0 137.996094-42.789063 123.699218-91.277344-10.644531 36.097657-61.976562 63.46875-123.699218 63.46875zm0 0" fill="#d43f3f"/><path d="m511.417969 213.257812c-4.953125-30.671874-41.78125-46.425781-72.605469-49.28125-70.15625-7.386718-146.34375 34.9375-138.515625 83.394532 5.796875 35.878906 57.757813 57.324218 116.058594 47.90625 58.300781-9.421875 100.859375-46.144532 95.0625-82.019532zm0 0" fill="#ff4c4c"/><path d="m486.328125 179.089844c22.050781 39.039062-23.730469 85.332031-90.101563 96.058594-35.773437 5.777343-69.164062-.0625-90.960937-13.730469 15.359375 27.183593 60.871094 41.972656 111.089844 33.855469 85.316406-13.785157 125.742187-81.214844 69.972656-116.183594zm0 0" fill="#d43f3f"/><path d="m200.183594 83.753906c-20.828125-32.804687-80.925782-31.96875-134.234375 1.875-53.3125 33.839844-79.644531 87.871094-58.816407 120.679688 18.601563 29.304687 68.542969 31.738281 116.992188 7.808594 54.207031-25.585938 102.136719-89.28125 76.058594-130.363282zm0 0" fill="#ff4c4c"/><path d="m180.734375 66.738281c19.914063 43.578125-30.425781 102.152344-78.9375 125.050781-36.273437 17.917969-73.378906 21.054688-97.546875 9.203126 20.136719 44.085937 95.59375 35.0625 148.203125-4.171876 58.625-43.425781 73.730469-107.785156 28.28125-130.082031zm0 0" fill="#d43f3f"/><path d="m195.046875 434.207031c0-17.039062-27.097656-30.851562-60.519531-30.851562-33.425782 0-60.519532 13.8125-60.519532 30.851562 0 17.039063 27.09375 30.851563 60.519532 30.851563 33.421875 0 60.519531-13.8125 60.519531-30.851563zm0 0" fill="#a83232"/><path d="m77.453125 423.921875c-14.269531 20.578125 16.386719 41.136719 57.074219 41.136719 41.472656 0 71.0625-20.960938 57.074218-41.136719-18.945312 27.320313-95.15625 27.394531-114.148437 0zm0 0" fill="#8c2a2a"/><path d="m150.121094 115.550781c-8.304688-13.082031-35.839844-10.484375-61.5 5.804688-25.664063 16.289062-39.738282 40.097656-31.433594 53.183593 8.304688 13.082032 35.839844 10.484376 61.503906-5.804687 25.664063-16.289063 39.734375-40.101563 31.429688-53.183594zm0 0" fill="#a83232"/><path d="m136.292969 107.625c.582031 27.101562-49.679688 63.535156-81.480469 58.605469.066406 3.058593.835938 5.863281 2.382812 8.296875 8.304688 13.082031 35.839844 10.480468 61.5-5.808594 35.472657-22.519531 45.746094-56.730469 17.597657-61.09375zm0 0" fill="#8c2a2a"/><path d="m456.671875 222.113281c-2.3125-14.308593-26.9375-22.230469-55-17.695312-28.0625 4.535156-48.9375 19.808593-46.628906 34.113281 2.3125 14.304688 26.9375 22.230469 55 17.695312 28.0625-4.535156 48.9375-19.808593 46.628906-34.113281zm0 0" fill="#a83232"/><path d="m438.46875 206.078125c-.261719 22.132813-50.367188 40.515625-83.597656 30.09375-.214844 17.898437 29.925781 24.125 55.171875 20.042969 45.5625-7.359375 63.246093-39.21875 28.425781-50.136719zm0 0" fill="#8c2a2a"/><path d="m395.089844 299.964844c-1.1875-.851563-2.378906-1.671875-3.574219-2.492188-35.039063.511719-65.269531-10.277344-80.738281-28.265625-77.390625-.367187-77.171875 87.199219 2.214844 144.496094 51.035156 36.839844 110.789062 41.238281 133.457031 9.832031 22.671875-31.410156-.324219-86.730468-51.359375-123.570312zm0 0" fill="#ff4c4c"/><path d="m312.992188 385.378906c-31.746094-22.917968-52.644532-52.984375-58.445313-80-8.230469 32.007813 14.902344 76.894532 58.445313 108.324219 74.046874 53.449219 155.105468 34.039063 140.542968-33.738281-1.414062 5.507812-82.714844 47.152344-140.542968 5.414062zm0 0" fill="#d43f3f"/><path d="m370.40625 334.191406c-24.5625-17.730468-51.808594-21.957031-60.847656-9.433594-9.039063 12.523438 3.546875 37.054688 28.109375 54.785157 24.566406 17.734375 51.808593 21.957031 60.851562 9.433593 9.039063-12.523437-3.546875-37.050781-28.113281-54.785156zm0 0" fill="#a83232"/><path d="m308.96875 325.613281c-7.863281 12.765625 4.703125 36.578125 28.703125 53.898438 24.566406 17.734375 51.808594 21.953125 60.851563 9.429687 3.824218-5.296875 3.777343-12.742187.589843-20.914062-14.308593 23.234375-76.066406-6.304688-90.144531-42.414063zm0 0" fill="#8c2a2a"/><path d="m402.605469 56.671875c-9.625-42.695313-67.359375-66.050781-128.960938-52.164063-43.0625 9.707032-76.609375 35.050782-89.609375 64.011719 20.859375 12.0625 31.171875 37.488281 16.28125 71.421875 24.199219 20.445313 65.25 28.863282 108.183594 19.183594 61.597656-13.886719 103.730469-59.753906 94.105469-102.453125zm0 0" fill="#ff4c4c"/><path d="m374.109375 17.9375c43.378906 70.085938-80.023437 151.816406-171.011719 114.925781-.816406 2.347657-1.742187 4.710938-2.78125 7.078125 24.199219 20.445313 65.25 28.863282 108.183594 19.183594 88.933594-20.046875 126.707031-101.101562 65.609375-141.1875zm0 0" fill="#d43f3f"/><path d="m344.753906 69.71875c-3.835937-17.027344-30.984375-25.410156-60.636718-18.726562-29.652344 6.683593-50.578126 25.90625-46.738282 42.929687 3.835938 17.023437 30.984375 25.410156 60.636719 18.722656 29.652344-6.683593 50.578125-25.902343 46.738281-42.925781zm0 0" fill="#f36c69"/><path d="m344.753906 69.71875c-3.835937-17.027344-30.984375-25.410156-60.636718-18.726562-29.652344 6.683593-50.578126 25.90625-46.738282 42.929687 3.835938 17.023437 30.984375 25.410156 60.636719 18.722656 29.652344-6.683593 50.578125-25.902343 46.738281-42.925781zm0 0" fill="#a83232"/><path d="m328.207031 52.917969c7.101563 29.035156-53.777343 56.476562-90.746093 41.3125 4.097656 16.816406 31.09375 25.054687 60.5625 18.414062 44.882812-10.117187 63.570312-46.03125 30.183593-59.726562zm0 0" fill="#8c2a2a"/></svg>