<svg height="511pt" viewBox="0 0 511.99992 511" width="511pt" xmlns="http://www.w3.org/2000/svg"><path d="m183.117188 456.796875c28.445312-14.5 28.472656-41.191406 0-55.707031-40.152344-20.46875-111.171876-6.753906-111.171876 27.855468.003907 34.617188 71.019532 48.320313 111.171876 27.851563zm-96.175782-27.855469c0-10.59375 21.914063-22.445312 51.238282-22.445312 29.328124 0 51.238281 11.851562 51.238281 22.445312 0 10.597656-21.910157 22.445313-51.238281 22.445313-29.324219 0-51.238282-11.847657-51.238282-22.445313zm0 0"/><path d="m89.609375 118.972656c-51.746094 32.847656-44.316406 77.246094-2.25 73.28125 25.703125-2.429687 56.378906-21.894531 69.523437-44.136718 21.789063-36.871094-16.3125-61.496094-67.273437-29.144532zm54.363281 21.515625c-10.675781 18.0625-37.128906 34.863281-58.023437 36.835938-32.25 3.046875-15.660157-28.324219 11.695312-45.691407 27.339844-17.355468 62.796875-19.015624 46.328125 8.855469zm0 0"/><path d="m396.257812 198.515625c-67.621093 10.925781-68.214843 66.421875-5.800781 66.421875 34.074219 0 71.746094-18.476562 67.773438-43.042969-2.996094-18.554687-29.648438-28.605469-61.972657-23.378906zm47.167969 25.769531c1.171875 7.234375-13.460937 20.378906-39.046875 24.511719-11.847656 1.914063-23.71875 1.382813-32.566406-1.464844-32.371094-10.414062 5.929688-35.15625 40.640625-35.15625 18.066406 0 30.03125 6.261719 30.972656 12.109375zm0 0"/><path d="m333.078125 308.847656c-14.074219-2.183594-25.128906 1.175782-31.101563 9.453125-20.53125 28.4375 34.695313 81.265625 75.25 81.265625 10.042969 0 18.316407-3.332031 23.25-10.167968 19.113282-26.476563-27.21875-74.328126-67.398437-80.550782zm55.238281 71.777344c-9.183594 12.722656-56.546875-6.203125-72.179687-36.667969-14.722657-28.683593 20.445312-24.902343 46.585937-6.035156 21.226563 15.324219 31.019532 35.183594 25.59375 42.703125zm0 0"/><path d="m255.824219 123.5625c40.953125 12.648438 101.375-16.003906 93.710937-50.019531-4.707031-20.878907-34.496094-31.347657-67.816406-23.835938-56.355469 12.707031-69 60.546875-25.894531 73.855469zm47.058593-61.292969c17.554688 0 30.1875 6.441407 32.023438 14.570313 4.21875 18.722656-41.457031 42.648437-74.65625 32.398437-37.113281-11.460937.089844-46.96875 42.632812-46.96875zm0 0"/><path d="m462.355469 165.148438c-3.933594-1.308594-8.175781.820312-9.480469 4.75-1.308594 3.929687.820312 8.171874 4.75 9.480468 43.386719 14.429688 52.824219 49.382813 18.640625 78.878906-23.164063 19.980469-58.042969 30.101563-88.777344 30.484376-68.910156.96875-108.28125-43.847657-60.71875-84.882813 26.820313-23.140625 69.855469-33.527344 105.945313-29.726563 4.109375.425782 7.804687-2.554687 8.242187-6.671874.433594-4.117188-2.554687-7.808594-6.675781-8.242188-81.367188-8.566406-165.207031 47.585938-138.382812 102.980469-17.515626 2.515625-31.605469 10.292969-40.4375 22.53125-41.125 56.972656 50.613281 161.695312 138.328124 161.695312 75.988282 0 86.246094-82.257812 13.972657-144.164062 28.089843-3.707031 57.121093-14.378907 78.296875-32.652344 42.605468-36.753906 31.367187-86.144531-23.703125-104.460937zm-75.332031 266.027343c-76.503907-5.636719-150.382813-94.75-119.402344-137.667969 7.59375-10.523437 21.113281-16.554687 38.296875-17.15625 19.292969 19.925782 51.640625 27.410157 79.382812 27.410157 71.78125 50.183593 77.917969 133.027343 1.722657 127.414062zm0 0"/><path d="m48.921875 368.882812c-3.546875 2.140626-4.6875 6.75-2.550781 10.296876 2.140625 3.542968 6.746094 4.6875 10.292968 2.546874 45.300782-27.316406 118.796876-27.230468 163.867188.503907 72.054688 44.34375 14.773438 114.304687-82.351562 114.304687-83.417969 0-140.320313-52.347656-102.761719-97.152344 2.660156-3.175781 2.246093-7.902343-.929688-10.5625-3.171875-2.660156-7.902343-2.246093-10.5625.929688-44.15625 52.675781 11.609375 121.78125 114.253907 121.78125 33.960937 0 66-8.203125 90.210937-23.105469 25.347656-15.597656 39.304687-36.722656 39.304687-59.480469.003907-73.589843-137.75-108.917968-218.773437-60.0625zm0 0"/><path d="m131.40625 222.0625c3.710938-1.835938 5.234375-6.332031 3.398438-10.046875-1.832032-3.710937-6.328126-5.234375-10.042969-3.398437-69.175781 34.171874-132.585938 7.160156-101.921875-55.753907 10.183594-20.894531 28.933594-40.742187 52.800781-55.894531 68.628906-43.566406 143.175781-25.585938 122.199219 36.488281-7.835938 23.230469-26.703125 44.242188-46.726563 59.070313-3.328125 2.46875-4.027343 7.164062-1.5625 10.488281 2.464844 3.328125 7.160157 4.027344 10.488281 1.5625 19.324219-14.3125 34.898438-31.714844 44.726563-49.804687 18.128906 12.132812 42.132813 18.570312 67.953125 18.570312 77.105469-.003906 145.773438-55.597656 132.953125-112.457031-5.074219-22.507813-22.179687-40.695313-48.164063-51.207031-60.28125-24.382813-144.910156 1.886718-174.582031 54.304687-54.210937-22.757813-143.628906 20.886719-173.566406 82.308594-35.324219 72.476562 34.566406 118.984375 122.046875 75.769531zm220.476562-198.480469c44.015626 17.800781 53.363282 59.078125 21.210938 94.082031-39.480469 42.984376-119.613281 53.835938-161.992188 23.261719 9.488282-25.566406 6.5-52.957031-15.171874-69.488281 25.550781-45.445312 102.171874-69.613281 155.953124-47.855469zm0 0"/></svg>