<svg height="512" viewBox="0 0 64 64" width="512" xmlns="http://www.w3.org/2000/svg"><g id="man_scan" data-name="man scan"><path d="m4 4h7v-2h-8a1 1 0 0 0 -1 1v8h2z"/><path d="m61 2h-8v2h7v7h2v-8a1 1 0 0 0 -1-1z"/><path d="m4 53h-2v8a1 1 0 0 0 1 1h8v-2h-7z"/><path d="m60 60h-7v2h8a1 1 0 0 0 1-1v-8h-2z"/><path d="m2 31h2v2h-2z"/><path d="m60 31h2v2h-2z"/><path d="m5 29a3 3 0 1 0 -3-3 3 3 0 0 0 3 3zm0-4a1 1 0 1 1 -1 1 1 1 0 0 1 1-1z"/><path d="m59 35a3 3 0 1 0 3 3 3 3 0 0 0 -3-3zm0 4a1 1 0 1 1 1-1 1 1 0 0 1 -1 1z"/><path d="m56 27h6v2h-6z"/><path d="m56 23h2v2h-2z"/><path d="m60 23h2v2h-2z"/><path d="m2 35h6v2h-6z"/><path d="m2 39h2v2h-2z"/><path d="m6 39h2v2h-2z"/><path d="m17.3 28h7.7a1 1 0 0 0 .6-.2l4-3a1 1 0 0 0 .4-.8v-.3a6.927 6.927 0 0 0 4 0v.3a1 1 0 0 0 .4.8l4 3a1 1 0 0 0 .6.2h7.7l2.748 1.832 1.11-1.664-3-2a1.006 1.006 0 0 0 -.558-.168h-7.667l-3.333-2.5v-.764a7 7 0 0 0 2.92-4.736h1.08a2 2 0 0 0 2-2v-1a2 2 0 0 0 -1.624-1.962l1.331-1.331a1 1 0 0 0 .293-.707v-1a7.008 7.008 0 0 0 -7-7h-6a7.008 7.008 0 0 0 -7 7v1a1 1 0 0 0 .293.707l1.331 1.331a2 2 0 0 0 -1.624 1.962v1a2 2 0 0 0 2 2h1.08a7 7 0 0 0 2.92 4.736v.764l-3.333 2.5h-7.667a1.006 1.006 0 0 0 -.555.168l-3 2 1.11 1.664zm22.7-12h-1v-1h1zm-16-6a5.006 5.006 0 0 1 5-5h6a5.006 5.006 0 0 1 5 5v.586l-1 1v-.586a1 1 0 0 0 -.757-.97l-8-2a.992.992 0 0 0 -.69.075l-4 2a1 1 0 0 0 -.553.895v.586l-1-1zm0 5h1v1h-1zm3 2v-5.382l3.116-1.558 6.884 1.721v5.219a5 5 0 0 1 -10 0z"/><path d="m6 31h52v2h-52z"/><path d="m43.494 36.156-.009-.013-4.762 2.857h-4.188l-1.7-2.555a1.039 1.039 0 0 0 -1.664 0l-1.706 2.555h-4.188l-4.762-2.857-.009.013a.973.973 0 0 0 -.506-.156h-4v2h3.1l1.887 17.929-.957 3.829 1.94.484 1-4a.983.983 0 0 0 .03-.342l-1.8-17.011 3.281 1.968a1 1 0 0 0 .519.143h5a1 1 0 0 0 .832-.445l1.168-1.755 1.168 1.752a1 1 0 0 0 .832.448h5a1 1 0 0 0 .515-.143l3.285-1.968-1.795 17.011a.983.983 0 0 0 .025.346l1 4 1.94-.484-.957-3.829 1.887-17.933h3.1v-2h-4a.973.973 0 0 0 -.506.156z"/><path d="m30 45h-5a1 1 0 0 0 -.895.553l-1 2 1.79.894.723-1.447h3.764l.723 1.447 1.79-.894-1-2a1 1 0 0 0 -.895-.553z"/><path d="m39 45h-5a1 1 0 0 0 -.9.553l-1 2 1.79.894.728-1.447h3.764l.723 1.447 1.79-.894-1-2a1 1 0 0 0 -.895-.553z"/><path d="m30 50h-3a1 1 0 0 0 -.895.553l-1 2 1.79.894.723-1.447h1.764l.723 1.447 1.79-.894-1-2a1 1 0 0 0 -.895-.553z"/><path d="m37 50h-3a1 1 0 0 0 -.9.553l-1 2 1.79.894.728-1.447h1.764l.723 1.447 1.79-.894-1-2a1 1 0 0 0 -.895-.553z"/><path d="m30 55h-1a1 1 0 0 0 -.895.553l-1 2 1.79.894.605-1.211.605 1.211 1.79-.894-1-2a1 1 0 0 0 -.895-.553z"/><path d="m35 55h-1a1 1 0 0 0 -.9.553l-1 2 1.79.894.6-1.211.6 1.211 1.79-.894-1-2a1 1 0 0 0 -.88-.553z"/></g></svg>