<svg height="512" viewBox="0 0 59 59" width="512" xmlns="http://www.w3.org/2000/svg"><g id="Page-1" fill="none" fill-rule="evenodd"><g id="009---Brain-Scan" fill-rule="nonzero"><path id="Shape" d="m.95 16.99v38c0 2.209139 1.790861 4 4 4h50c2.209139 0 4-1.790861 4-4v-50c0-2.209139-1.790861-4-4-4h-50c-2.209139 0-4 1.790861-4 4z" fill="#3f5c6c"/><path id="Shape" d="m56.06 1.15c-11.54.91-53.26 7.47-55 54.75-.07222728-.2979698-.10914771-.6034025-.11-.91v-50c0-2.209139 1.790861-4 4-4h50c.3760024-.00370511.7503507.050255 1.11.16z" fill="#547580"/><path id="Shape" d="m29.98 9v38.5c.004029.7721849-.1349817 1.5384387-.41 2.26-.9302552 2.5014651-3.2950375 4.1800993-5.963351 4.2330683s-5.097852-1.5304925-6.126649-3.9930683c-3.0375661 0-5.5-2.4624339-5.5-5.5-.0036957-.8782027.2092593-1.7437618.62-2.52-2.039153-.1556009-3.77799155-1.5373316-4.39024491-3.4886139s.02551423-4.0787201 1.61024491-5.3713861c0 .01 0 .01.01 0s.03-.02.04-.03c-1.26582653-1.274715-1.94834435-3.0160325-1.88584772-4.8113903.06249663-1.7953577.86444662-3.4850007 2.21584772-4.6686097-.1450891-.5243956-.21908404-1.0659037-.22-1.61.00159971-2.7662786 1.8927372-5.1735562 4.58-5.83h.01c.3833897-.0937969.7755038-.1474193 1.17-.16-.3946841-.5902163-.6447723-1.265112-.73-1.97-.0199621-.1793081-.0299774-.3595842-.03-.54-.0009062-1.8928442 1.1879144-3.58201025 2.97-4.22l.01-.01c.27-.2.54-.39.8-.58h.01c.9-.63 1.72-1.15 2.47-1.58 8.74-5.01 8.74 1.89 8.74 1.89z" fill="#9fc9d3"/><path id="Shape" d="m51.47 34.79c.731596 1.4895047.6765105 3.2449402-.1470354 4.6856446s-2.3082357 2.3789391-3.9629646 2.5043554c.4107407.7762382.6236957 1.6417973.62 2.52 0 3.0375661-2.4624339 5.5-5.5 5.5-1.028797 2.4625758-3.4583355 4.0460373-6.126649 3.9930683s-5.0330958-1.7316032-5.963351-4.2330683c-.2750183-.7215613-.414029-1.4878151-.41-2.26v-38.5s0-6.9 8.74-1.89c.75.43 1.57.95 2.47 1.58h.01c.26.19.53.38.8.58l.01.01c1.7820856.63798975 2.9709062 2.3271558 2.97 4.22-.0000226.1804158-.0100379.3606919-.03.54-.0852277.704888-.3353159 1.3797837-.73 1.97.3912018.0125755.7800011.066203 1.16.16h.01c2.6922714.6509122 4.5890895 3.0601604 4.59 5.83-.000916.5440963-.0749109 1.0856044-.22 1.61 1.3514011 1.183609 2.1533511 2.873252 2.2158477 4.6686097.0624967 1.7953578-.6200212 3.5366753-1.8858477 4.8113903.01.01.03.02.04.03.5631307.4522624 1.0204912 1.0222566 1.34 1.67z" fill="#84b5cb"/><path id="Shape" d="m9.981 52h-5c-.55228475 0-1-.4477153-1-1s.44771525-1 1-1h5c.5522847 0 1 .4477153 1 1s-.4477153 1-1 1z" fill="#65ddb9"/><path id="Shape" d="m14.981 56h-10c-.55228475 0-1-.4477153-1-1s.44771525-1 1-1h10c.5522847 0 1 .4477153 1 1s-.4477153 1-1 1z" fill="#65ddb9"/><path id="Shape" d="m54.981 10h-5c-.5522847 0-1-.44771525-1-1s.4477153-1 1-1h5c.5522847 0 1 .44771525 1 1s-.4477153 1-1 1z" fill="#65ddb9"/><path id="Shape" d="m54.981 6h-10c-.5522847 0-1-.44771525-1-1s.4477153-1 1-1h10c.5522847 0 1 .44771525 1 1s-.4477153 1-1 1z" fill="#65ddb9"/><g fill="#3b97d3"><path id="Shape" d="m15.74 16.01c-.3946841-.5902163-.6447723-1.265112-.73-1.97h.01c4.1292622.0044093 7.4755907 3.3507378 7.48 7.48 0 .5909447-.4790553 1.07-1.07 1.07s-1.07-.4790553-1.07-1.07c0-2.95-1.888-5.347-4.62-5.51"/><path id="Shape" d="m14.48 35.41c.0013374.2841895-.1109649.5571259-.3119195.7580805s-.473891.3132569-.7580805.3119195c-1.7834024.0060814-3.51676502-.5893216-4.92-1.69.31849335-.6455715.77207849-1.2151108 1.33-1.67 0 .01 0 .01.01 0 1.0221475.7977507 2.2834143 1.2275678 3.58 1.22.2841895-.0013374.5571259.1109649.7580805.3119195s.3132569.473891.3119195.7580805z"/><path id="Shape" d="m24.64 12.43c0 .5909447-.4790553 1.07-1.07 1.07s-1.07-.4790553-1.07-1.07c-.0027345-2.0605114-1.6695033-3.73174876-3.73-3.74.9-.63 1.72-1.15 2.47-1.58 2.072572.95998519 3.3992827 3.0358971 3.4 5.32z"/><path id="Shape" d="m23.985 25.141c-1.681473 1.6805991-4.2096144 2.1830952-6.4059655 1.2732564-2.1963512-.9098387-3.628565-3.0529123-3.6290345-5.4302564 0-.5903924-.4786076-1.069-1.069-1.069s-1.069.4786076-1.069 1.069c.0066495 3.7015837 2.5445537 6.9182729 6.143 7.786-.5087017 1.2846797-1.6824865 2.18567-3.055 2.345-.561474.0644367-.975782.5547822-.9455914 1.1191346.0301906.5643525.4944474 1.0076982 1.0595914 1.0118654.0390768-.0000039.0781278-.0020066.117-.006 2.3796603-.2718366 4.360287-1.9523684 5.016-4.256 2.0144401-.0711714 3.9266823-.9046945 5.35-2.332.4033182-.4198328.3965342-1.0852079-.0152603-1.49673-.4117944-.4115221-1.0771738-.4178659-1.4967397-.01427z"/><path id="Shape" d="m24.638 34.344c-4.1299768.0044082-7.4770398 3.3510238-7.482 7.481 0 .029.005.058.005.087-.3554291-.0548992-.7143687-.0839753-1.074-.087-.5903924 0-1.069.4786076-1.069 1.069s.4786076 1.069 1.069 1.069c2.950039.0033066 5.3406934 2.393961 5.344 5.344 0 .5903924.4786076 1.069 1.069 1.069s1.069-.4786076 1.069-1.069c-.0048108-2.8610299-1.6399087-5.4691138-4.213-6.72-.039179-.2521532-.0599007-.5068298-.062-.762.0033066-2.950039 2.393961-5.3406934 5.344-5.344.5773934-.0176659 1.0363083-.4908364 1.0363083-1.0685s-.4589149-1.0508341-1.0363083-1.0685z"/><path id="Shape" d="m29.982 19.381c.5900018-.0005519 1.0680003-.4789979 1.068-1.069-.0027553-2.3598751-1.9151249-4.2722447-4.275-4.275-.5903924 0-1.069.4786076-1.069 1.069s.4786076 1.069 1.069 1.069c1.180166.0005512 2.1368967.9568344 2.138 2.137 0 .5903924.4786076 1.069 1.069 1.069z"/><path id="Shape" d="m44.95 14.04c-.0852277.704888-.3353159 1.3797837-.73 1.97-2.7464291.3413418-4.7627816 2.7461258-4.62 5.51 0 .5909447-.4790553 1.07-1.07 1.07s-1.07-.4790553-1.07-1.07c.0044093-4.1292622 3.3507378-7.4755907 7.48-7.48z"/><path id="Shape" d="m51.47 34.79c-1.403235 1.1006784-3.1365976 1.6960814-4.92 1.69-.5909447 0-1.07-.4790553-1.07-1.07s.4790553-1.07 1.07-1.07c1.2965857.0075678 2.5578525-.4222493 3.58-1.22.5631307.4522624 1.0204912 1.0222566 1.34 1.67z"/><path id="Shape" d="m41.19 8.69c-2.0604967.00825124-3.7272655 1.6794886-3.73 3.74 0 .5909447-.4790553 1.07-1.07 1.07s-1.07-.4790553-1.07-1.07c.0007173-2.2841029 1.327428-4.36001481 3.4-5.32.75.43 1.57.95 2.47 1.58z"/><path id="Shape" d="m34.468 26.652c1.4226229 1.4278613 3.3346575 2.2618073 5.349 2.333.6556765 2.3030856 2.6358749 3.983194 5.015 4.255.0388722.0039934.0779232.0059961.117.006.565144-.0041672 1.0294008-.4475129 1.0595914-1.0118654.0301906-.5643524-.3841174-1.0546979-.9455914-1.1191346-1.3721392-.1596778-2.5454653-1.0606109-3.054-2.345 3.5980492-.8681197 6.1354623-4.0847101 6.142-7.786 0-.5903924-.4786076-1.0689999-1.069-1.0689999s-1.069.4786075-1.069 1.0689999c.0001022 2.3773789-1.4318747 4.5207377-3.628226 5.4306671-2.1963512.9099295-4.7245621.4072425-6.405774-1.2736671-.2699142-.2699142-.6633226-.3753276-1.0320322-.2765322s-.6567046.3867904-.7555.7555.006618.762118.2765322 1.0320322z"/><path id="Shape" d="m44.945 42.894c-.359607.0026937-.7185465.0314356-1.074.086 0-.028 0-.057 0-.086-.0049602-4.1299762-3.3520232-7.4765918-7.482-7.481-.389533-.0119181-.754687.18909-.9529754.5245892-.1982885.3354991-.1982885.7523225 0 1.0878216.1982884.3354992.5634424.5365073.9529754.5245892 2.950039.0033066 5.3406934 2.393961 5.344 5.344-.0020993.2551702-.022821.5098468-.062.762-2.5735893 1.2503315-4.2089054 3.8587636-4.213 6.72 0 .5903924.4786076 1.069 1.069 1.069s1.069-.4786076 1.069-1.069c.0033066-2.950039 2.393961-5.3406934 5.344-5.344.5903924 0 1.069-.4786076 1.069-1.069s-.4786076-1.069-1.069-1.069z"/><path id="Shape" d="m28.913 23.656c-.0119181.389533.18909.754687.5245892.9529754.3354991.1982885.7523225.1982885 1.0878216 0 .3354992-.1982884.5365073-.5634424.5245892-.9529754.0016536-1.1799372.9580621-2.1358984 2.138-2.137.5903924 0 1.069-.4786076 1.069-1.069s-.4786076-1.069-1.069-1.069c-2.3598751.0027553-4.2722447 1.9151249-4.275 4.275z"/><path id="Shape" d="m38 41.825c0-.5898401-.4781599-1.068-1.068-1.068-4.4248967.0044089-8.0110391 3.5901039-8.016 8.015-.0119181.389533.18909.754687.5245892.9529754.3354991.1982885.7523225.1982885 1.0878216 0 .3354992-.1982884.5365073-.5634424.5245892-.9529754.004408-3.2448925 2.6341068-5.874144 5.879-5.878.2834246.0000001.5552262-.1126582.7555438-.3131634s.3127216-.4724122.3124562-.7558366z"/></g></g></g></svg>