<svg height="512" viewBox="0 0 61 60" width="512" xmlns="http://www.w3.org/2000/svg"><g id="Page-1" fill="none" fill-rule="evenodd"><g id="009---Brain-Scan" fill="rgb(0,0,0)" fill-rule="nonzero"><path id="Shape" d="m12.227 42.733c-.1638117.574686-.2466104 1.1694234-.246 1.767.0038727 3.3367581 2.5303851 6.1301738 5.85 6.468 1.2656892 2.4312321 3.7580119 3.9772209 6.4984439 4.0309876 2.740432.0537666 5.2914772-1.3932725 6.6515561-3.7729876 1.3603671 2.3796462 3.9115317 3.8265806 6.6520469 3.7728164 2.7405153-.0537642 5.232966-1.5996457 6.4989531-4.0308164 1.911603-.1935895 3.6396134-1.2229961 4.7200512-2.8118185 1.0804379-1.5888225 1.4025871-3.5742488.8799488-5.4231815 2.5179862-.7757107 4.2393337-3.0982537 4.249-5.733.0017306-1.4690122-.5408552-2.8865755-1.523-3.979 2.2423851-2.9500489 1.9831882-7.0980499-.609-9.746.7218395-3.6312783-1.5508468-7.1850536-5.15-8.053.9246652-2.7613156-.4795705-5.76247363-3.192-6.822-5.065-3.693-8.713-4.89-11.147-3.655-.5454137.27682073-1.0178651.67835301-1.379 1.172-.3613391-.49422596-.8345865-.89585227-1.381-1.172-2.433-1.236-6.084-.035-11.15 3.662-2.709092 1.05894283-4.1107842 4.0572267-3.186 6.815-3.60109.8652278-5.87511975 4.4211039-5.15 8.053-2.59329273 2.647061-2.852554 6.7956671-.609 9.745-.98232682 1.0927839-1.52522862 2.5105983-1.524 3.98.00957937 2.6338227 1.72939662 4.9559406 4.246 5.733zm21.046-36.209c.788-.394 2.614-.571 6.471 1.762-2.2443047.74898149-3.7592033 2.8480198-3.763 5.214 0 .5522847.4477153 1 1 1s1-.4477153 1-1c0-1.9329966 1.5670034-3.5 3.5-3.5.4043215-.00246424.8056536.0693959 1.184.212.013 0 .025.012.038.017.9210393.3421669 1.6555105 1.0562218 2.0234997 1.9672518.3679891.91103.3355033 1.9348791-.0894997 2.8207482-3.724467.1832496-6.6514493 3.2540304-6.656 6.983 0 .5522847.4477153 1 1 1s1-.4477153 1-1c0-2.7614237 2.2385763-5 5-5s5 2.2385763 5 5c-.0006728.4548895-.0625616.9076194-.184 1.346-.0824122.3690515.0340084.7543392.307 1.016 1.7236666 1.5091931 2.3312892 3.9287847 1.5251581 6.073276-.8061312 2.1444913-2.857156 3.5646765-5.1481581 3.564724-.5522847 0-1 .4477153-1 1s.4477153 1 1 1c1.6521109.0020334 3.2581345-.5445633 4.566-1.554.60328.7142593.9341663 1.6190599.934 2.554-.0056026 2.0869264-1.6124453 3.8199495-3.693 3.983-.3373286.0247924-.6392626.2184251-.8025138.5146586-.1632513.2962334-.1656916.6549141-.0064862.9533414.3320356.6317152.5037373 1.335349.5 2.049 0 2.4852814-2.0147186 4.5-4.5 4.5-.4032157.0003696-.7667621.2428654-.922.615-1.0608848 2.5466668-3.8442878 3.9133665-6.5080766 3.1955797-2.6637887-.7177867-4.3836682-3.2979447-4.0213749-6.0328546.3622933-2.7349098 2.6946496-4.7782685 5.4534515-4.7777251.5522847 0 1-.4477153 1-1s-.4477153-1-1-1c-2.0908449.0012089-4.0855886.8781708-5.5 2.418v-18.418c0-1.1045695.8954305-2 2-2 .5522847 0 1-.4477153 1-1s-.4477153-1-1-1c-.704233.0042894-1.394596.1962103-2 .556v-11.551c0-.018.035-1.852 1.292-2.481zm-21.414 17.838c.2650674-.2664548.3801591-.6473448.307-1.016-.1217525-.4383394-.1839773-.8910669-.185-1.346.0000001-2.7614237 2.2385763-4.9999999 5-4.9999999s4.9999999 2.2385762 5 4.9999999c0 .5522847.4477153 1 1 1s1-.4477153 1-1c-.004524-3.7286016-2.9309268-6.7992358-6.655-6.983-.4307007-.8968393-.4593722-1.9345955-.0788473-2.8538476.380525-.9192521 1.1342829-1.6331212 2.0728473-1.9631524.3716368-.1366425.7650637-.2044163 1.161-.2 1.9329966 0 3.5 1.5670034 3.5 3.5 0 .5522847.4477153 1 1 1s1-.4477153 1-1c-.0038175-2.3653503-1.5176777-4.46406535-3.761-5.214 3.855-2.333 5.681-2.158 6.469-1.762 1.258.629 1.292 2.463 1.292 2.476v6.556c-.605289-.3600587-1.2957266-.5520003-2-.556-.5522847 0-1 .4477153-1 1s.4477153 1 1 1c1.1045695 0 2 .8954305 2 2v28.5c.0045093 2.625519-1.8473481 4.8881309-4.4219413 5.4027576-2.5745932.5146266-5.1539351-.8622479-6.1590587-3.2877576-.1548156-.3711304-.5168767-.6134238-.919-.615-2.4841391-.0027556-4.4972444-2.0158609-4.5-4.5-.0032477-.7135933.1684256-1.4171105.5-2.049.1591557-.2982761.1568248-.6567734-.006196-.9529548-.1630208-.2961813-.4646559-.489939-.801804-.5150452-2.079935-.1640075-3.68595968-1.8966176-3.692-3.983.00019974-.9350506.3314351-1.8398368.935-2.554 1.3074129 1.0095651 2.9131691 1.5561905 4.565 1.554.5522847 0 1-.4477153 1-1s-.4477153-1-1-1c-2.2908191-.000464-4.3414623-1.4207985-5.1473341-3.5651919-.80587188-2.1443934-.198195-4.5637355 1.5253341-6.0728081z"/><path id="Shape" d="m19.729 28.785c-.4767095 1.2016783-1.5749003 2.0444313-2.859 2.194-.3589443.034158-.6717056.258904-.8185623.5882076-.1468567.3293037-.1050653.7121665.1093768 1.0020326s.5683248.4418446.9261855.3977598c2.2263551-.2545391 4.0793503-1.8268014 4.693-3.982 1.8828699-.067817 3.669844-.8476525 5-2.182.3789722-.3923789.3735524-1.0160848-.0121814-1.4018186s-1.0094397-.3911536-1.4018186-.0121814c-1.5728921 1.5736306-3.9389429 2.0446081-5.994544 1.1932521-2.0556011-.8513559-3.39579-2.8573245-3.395456-5.0822521 0-.5522847-.4477153-1-1-1s-1 .4477153-1 1c.0065626 3.4650392 2.3838617 6.4754032 5.753 7.285z"/><path id="Shape" d="m25.981 34c-3.8641657.0044086-6.9955914 3.1358343-7 7v.081c-.3309426-.0510902-.665149-.0781609-1-.081-.5522847 0-1 .4477153-1 1s.4477153 1 1 1c2.7600532.0033061 4.9966939 2.2399468 5 5 0 .5522847.4477153 1 1 1s1-.4477153 1-1c-.0037171-2.6770361-1.5339198-5.1175191-3.942-6.287-.222203-1.4372864.198126-2.8996321 1.1496122-3.9995594.9514863-1.0999274 2.3380845-1.726407 3.7923878-1.7134406.5522847 0 1-.4477153 1-1s-.4477153-1-1-1z"/><path id="Shape" d="m35.179 26.8c1.3299407 1.3347985 3.1169686 2.1150149 5 2.183.6136132 2.1546526 2.46618 3.7264916 4.692 3.981.3578607.0440848.7117434-.1078937.9261855-.3977598s.2562335-.6727289.1093768-1.0020326c-.1468567-.3293036-.459618-.5540496-.8185623-.5882076-1.2840687-.1490699-2.3821865-.9920617-2.858-2.194 3.3672577-.8101183 5.7432779-3.8186697 5.751-7.282 0-.5522847-.4477153-1-1-1s-1 .4477153-1 1c-.0004748 2.2240488-1.3403481 4.2289193-3.3950733 5.0800938-2.0547251.8511745-4.4198472.3811066-5.9929267-1.1910938-.3947124-.3584145-1.0012013-.3441299-1.378602.0324701-.3774007.3765999-.3929733.9830572-.035398 1.3785299z"/><path id="Shape" d="m43.977 42.081c0-.027 0-.054 0-.081-.0044086-3.8641657-3.1358343-6.9955914-7-7-.5522847 0-1 .4477153-1 1s.4477153 1 1 1c1.4537892-.0111876 2.8393487.6157575 3.790599 1.7151896s1.3724819 2.5607326 1.152401 3.9978104c-2.4069128 1.1703325-3.9358416 3.610641-3.939 6.287 0 .5522847.4477153 1 1 1s1-.4477153 1-1c.0033061-2.7600532 2.2399468-4.9966939 5-5 .5522847 0 1-.4477153 1-1s-.4477153-1-1-1c-.336189.0025963-.6717428.0296679-1.004.081z"/><path id="Shape" d="m5.981 60h50c2.7600532-.0033061 4.9966939-2.2399468 5-5v-50c-.0033061-2.76005315-2.2399468-4.99669388-5-5h-50c-2.76005315.00330612-4.99669388 2.23994685-5 5v6c0 .5522847.44771525 1 1 1s1-.4477153 1-1v-6c0-1.65685425 1.34314575-3 3-3h50c1.6568542 0 3 1.34314575 3 3v50c0 1.6568542-1.3431458 3-3 3h-50c-1.65685425 0-3-1.3431458-3-3v-38c0-.5522847-.44771525-1-1-1s-1 .4477153-1 1v38c.00330612 2.7600532 2.23994685 4.9966939 5 5z"/><path id="Shape" d="m4.981 51c0 .5522847.44771525 1 1 1h5c.5522847 0 1-.4477153 1-1s-.4477153-1-1-1h-5c-.55228475 0-1 .4477153-1 1z"/><path id="Shape" d="m5.981 56h10c.5522847 0 1-.4477153 1-1s-.4477153-1-1-1h-10c-.55228475 0-1 .4477153-1 1s.44771525 1 1 1z"/><path id="Shape" d="m55.981 8h-5c-.5522847 0-1 .44771525-1 1s.4477153 1 1 1h5c.5522847 0 1-.44771525 1-1s-.4477153-1-1-1z"/><path id="Shape" d="m55.981 4h-10c-.5522847 0-1 .44771525-1 1s.4477153 1 1 1h10c.5522847 0 1-.44771525 1-1s-.4477153-1-1-1z"/></g></g></svg>