<svg height="512" viewBox="0 0 58 58" width="512" xmlns="http://www.w3.org/2000/svg"><g id="Page-1" fill="none" fill-rule="evenodd"><g id="044---Doctors-Appointment" fill-rule="nonzero"><path id="Shape" d="m56 6c1.1045695 0 2 .8954305 2 2v48c-.0032948 1.1032019-.8967981 1.9967052-2 2h-54c-1.10320187-.0032948-1.9967052-.8967981-2-2v-48c.0032948-1.10320187.89679813-1.9967052 2-2z" fill="#35495e"/><path id="Shape" d="m53 46v5c0 1.1045695-.8954305 2-2 2h-44c-1.1045695 0-2-.8954305-2-2v-5z" fill="#bdc3c7"/><path id="Shape" d="m53 5v6h-48v-6c.0032948-1.10320187.89679813-1.9967052 2-2h44c1.1032019.0032948 1.9967052.89679813 2 2z" fill="#e64c3c"/><path id="Shape" d="m53 11v35c-.0032948 1.1032019-.8967981 1.9967052-2 2h-44c-1.10320187-.0032948-1.9967052-.8967981-2-2v-35z" fill="#ecf0f1"/><g fill="#95a5a5"><rect id="Rectangle-path" height="7" rx="2" width="4" x="22"/><rect id="Rectangle-path" height="7" rx="2" width="4" x="12"/><rect id="Rectangle-path" height="7" rx="2" width="4" x="32"/><rect id="Rectangle-path" height="7" rx="2" width="4" x="42"/></g><path id="Shape" d="m46 15h-1c-.5522847 0-1 .4477153-1 1s.4477153 1 1 1h1v5c0 1.6568542-1.3431458 3-3 3s-3-1.3431458-3-3v-5h1c.5522847 0 1-.4477153 1-1s-.4477153-1-1-1h-1c-1.1045695 0-2 .8954305-2 2v5c.0029983 2.3751008 1.6735832 4.4215673 4 4.9v2.1c-.0058457 5.6303251-3.6354668 10.6169422-8.9914462 12.3530525-5.3559795 1.7361102-11.220792-.1729402-14.5285541-4.7291782-3.3077622-4.5562379-3.3065511-10.7239358.0030003-15.2788743l-1.628-1.162c-3.8116573 5.258526-3.806175 12.3727456.0135822 17.6253908s10.5859998 7.4503966 16.7632822 5.4449018 10.3622218-7.7586185 10.3681356-14.2532926v-2.1c2.3264168-.4784327 3.9970017-2.5248992 4-4.9v-5c0-1.1045695-.8954305-2-2-2z" fill="#7f8c8d"/><path id="Shape" d="m27 35c-.2651948-.0000566-.5195073-.1054506-.707-.293l-3-3c-.3789722-.3923789-.3735524-1.0160848.0121814-1.4018186s1.0094397-.3911536 1.4018186-.0121814l2.157 2.157 6.317-9.023c.3230894-.4333537.9320649-.5315253 1.3749678-.2216555.4429028.3098697.5594002.9156066.2630322 1.3676555l-7 10c-.1694679.242281-.4374646.3971479-.732.423-.0289118.0028297-.0579505.0041648-.087.004z" fill="#4fba6f"/><circle id="Oval" cx="18" cy="20" fill="#95a5a5" r="3"/></g></g></svg>