<?xml version="1.0"?>
<svg xmlns="http://www.w3.org/2000/svg" height="512px" viewBox="0 0 58 58" width="512px" class=""><g><script xmlns="" id="tinyhippos-injected"/><g id="Page-1" fill="none" fill-rule="evenodd"><g id="015---Diet-Plan" fill-rule="nonzero" transform="translate(-1)"><path id="Shape" d="m12.78 13.41v-8.16c.11-3.03 2.96-5.25 6.22-5.25h33l-7 7v43c-.0032948 1.1032019-.8967981 1.9967052-2 2h-12.77l-16.78-15.71-.67-14.93z" fill="#f9eab0" data-original="#F9EAB0" class="" style="fill:#FFFFFF" data-old_color="#f9eab0"/><path id="Shape" d="m31.41 48.98c-.2887294 1.0444682-.6841442 2.056462-1.18 3.02-2.11 4.18-5.74 6.67-8.99 5.84-.434009-.109927-.8511326-.278122-1.24-.5-.3845285.2235133-.7985845.3918287-1.23.5-2.81.72-5.91-1.05-8.06-4.25-.95000349-1.4113316-1.66274743-2.9685589-2.11-4.61-1.65-5.92.23-11.55 4.2-12.57.2124592-.0601447.4300705-.1003191.65-.12 1.4827127-.1392681 2.966901.2503756 4.19 1.1 1.4425997.9195193 3.2874003.9195193 4.73 0 1.3994382-.9939218 3.1538466-1.3498888 4.83-.98 3.97 1.02 5.85 6.65 4.21 12.57z" fill="#e64c3c" data-original="#E64C3C" class=""/><path id="Shape" d="m19.608 34.966c.329 1.33 2.479 1.94 4.8 1.364 1.611-.4 3.943-2.238 5.22-3.327.1816302-.153326.2594214-.3971144.2001688-.6273046-.0592527-.2301901-.2450826-.4061204-.4781688-.4526954-1.63-.331-4.525-.806-6.133-.407-2.317.576-3.938 2.121-3.609 3.45z" fill="#4fba6f" data-original="#4FBA6F" class=""/><path id="Shape" d="m4.91 20.38-2.81-5.56c-.39-.77.4-1.6 1.32-1.39l2.3.5-2.71-7.16c-.29-.78.56-1.53 1.45-1.27l1.26.37 1.2-3.18c.19473758-.42088579.61624621-.69030009 1.08-.69030009s.88526242.2694143 1.08.69030009l.14.36 1.06 2.82 1.26-.37c.4406706-.1327064.9185765-.00937584 1.24.32v.01c.2516715.24314935.3342673.61286432.21.94l-.03.07v.01l-2.68 7.08 2.3-.5c.92-.21 1.71.62 1.32 1.39l-2.81 5.56z" fill="#4fba6f" data-original="#4FBA6F" class=""/><g fill="#a59078"><path id="Shape" d="m21 5h-2c-.5522847 0-1-.44771525-1-1s.4477153-1 1-1h2c.5522847 0 1 .44771525 1 1s-.4477153 1-1 1z" data-original="#A59078" class=""/><path id="Shape" d="m41 5h-16c-.5522847 0-1-.44771525-1-1s.4477153-1 1-1h16c.5522847 0 1 .44771525 1 1s-.4477153 1-1 1z" data-original="#A59078" class=""/><path id="Shape" d="m39 11h-21c-.5522847 0-1-.4477153-1-1 0-.55228475.4477153-1 1-1h21c.5522847 0 1 .44771525 1 1 0 .5522847-.4477153 1-1 1z" data-original="#A59078" class=""/><path id="Shape" d="m39 16h-21c-.5522847 0-1-.4477153-1-1s.4477153-1 1-1h21c.5522847 0 1 .4477153 1 1s-.4477153 1-1 1z" data-original="#A59078" class=""/><path id="Shape" d="m39 21h-21c-.5522847 0-1-.4477153-1-1s.4477153-1 1-1h21c.5522847 0 1 .4477153 1 1s-.4477153 1-1 1z" data-original="#A59078" class=""/><path id="Shape" d="m39 26h-6c-.5522847 0-1-.4477153-1-1s.4477153-1 1-1h6c.5522847 0 1 .4477153 1 1s-.4477153 1-1 1z" data-original="#A59078" class=""/></g><path id="Shape" d="m41 49h-5c-.5522847 0-1-.4477153-1-1s.4477153-1 1-1h4v-4c0-.5522847.4477153-1 1-1s1 .4477153 1 1v5c0 .5522847-.4477153 1-1 1z" fill="#b19046" data-original="#B19046" class=""/><path id="Shape" d="m12.453 48.906c-.4489151-.0001881-.8426908-.2995066-.963-.732-.8174047-2.4448052-.663814-5.1102665.429-7.445.2780058-.4742136.886647-.6351286 1.3626943-.3602745.4760473.274854.640996.8824145.3693057 1.3602745-.8083412 1.8724345-.891743 3.9785077-.234 5.909.0837942.3012272.0218746.6243091-.1673535.8732108-.189228.2489016-.4839817.3949709-.7966465.3947892z" fill="#fff" data-original="#FFF" class="" data-old_color="#fff" style="fill:#FBF3F3"/><path id="Shape" d="m20.157 41.245c-.5522847 0-1-.4477153-1-1v-1.845c.1313253-2.0303441-.6024961-4.0214705-2.02-5.481-.2595535-.2457987-.3682587-.6113962-.2851675-.9590755.0830913-.3476792.3453554-.6246195.688-.7265.3426447-.1018805.713614-.0132232.9731675.2325755 1.8222111 1.8334556 2.7828507 4.3527729 2.644 6.934v1.849c-.0022029.550722-.4492736.9960044-1 .996z" fill="#805333" data-original="#805333"/><path id="Shape" d="m59 7h-14c0-3.86599325 3.1340068-7 7-7s7 3.13400675 7 7z" fill="#e4c05c" data-original="#E4C05C" class="active-path" data-old_color="#e4c05c" style="fill:#F1EEEE"/><path id="Shape" d="m14.93 26.94-1.48 9.35c-.2199295.0196809-.4375408.0598553-.65.12-3.97 1.02-5.85 6.65-4.2 12.57.44725257 1.6414411 1.15999651 3.1986684 2.11 4.61l-.01.01-.38 2.42c-.1809708 1.141-1.16473751 1.9810313-2.32 1.9810313s-2.13902917-.8400313-2.32-1.9810313l-4.61-29.08c-.43972551-2.8210105 1.1649245-5.5622876 3.84-6.56.67395586-.2554334 1.38927496-.3842586 2.11-.38h1.96c.72072504-.0042586 1.4360441.1245666 2.11.38 2.6750755.9977124 4.2797255 3.7389895 3.84 6.56z" fill="#f29c1f" data-original="#F29C1F" class="" style="fill:#F29C1F"/></g></g></g> </svg>
