<svg height="511pt" viewBox="1 0 511.99937 511" width="511pt" xmlns="http://www.w3.org/2000/svg"><path d="m470.910156 132.183594c-4.90625 4.90625-10.007812 8.890625-15.382812 12.054687l-87.273438-87.277343c3.164063-5.371094 7.144532-10.472657 12.054688-15.382813 9.382812-9.382813 9.382812-24.652344-.003906-34.039063-9.382813-9.382812-24.652344-9.386718-34.039063 0-39.0625 39.0625-39.632813 86.28125-32.796875 128.914063-49.628906-10.230469-104.492188-14.582031-148.289062 29.210937-19.796876 19.800782-31.179688 43.054688-34.796876 71.097657-.53125 4.113281 2.375 7.878906 6.488282 8.410156 4.101562.53125 7.878906-2.375 8.40625-6.488281 3.179687-24.625 13.160156-45.035156 30.523437-62.398438 40.351563-40.351562 91.328125-34.542968 140.558594-23.867187 1.46875 7.355469 2.769531 13.125 4.203125 19.464843-48.914062-11.125-96.289062-18.988281-132.015625 17.253907-79.859375 79.972656 55.839844 216.40625-33.429687 305.675781-3.527344 3.527344-9.269532 3.527344-12.796876 0-3.53125-3.527344-3.53125-9.269531 0-12.796875 56.605469-56.609375 6.027344-137.929687 2.0625-215.785156-.214843-4.140625-3.710937-7.335938-7.882812-7.117188-4.144531.210938-7.332031 3.742188-7.121094 7.882813.824219 16.148437 3.566406 32.332031 6.585938 46.957031-42.632813-6.832031-89.847656-6.261719-128.910156 32.796875-9.40625 9.402344-9.410157 24.632812 0 34.039062 9.40625 9.410157 24.632812 9.410157 34.042968 0 4.90625-4.90625 10.007813-8.886718 15.378906-12.050781l87.277344 87.273438c-3.167968 5.375-7.148437 10.476562-12.054687 15.382812-9.386719 9.382813-9.386719 24.65625 0 34.039063 9.382812 9.386718 24.652343 9.386718 34.039062 0 39.0625-39.0625 39.632813-86.28125 32.796875-128.914063 56.648438 11.675781 107.269532 11.808594 148.289063-29.210937 43.796875-43.796875 39.4375-98.667969 29.207031-148.296875 14.25 2.265625 28.5625 3.636719 42.972656 3.183593 4.144532-.132812 7.398438-3.601562 7.269532-7.746093-.132813-4.144531-3.59375-7.414063-7.742188-7.269531-13.460938.421874-28.160156-.839844-45.949219-3.976563-1.445312-6.339844-2.851562-12.3125-4.433593-19.179687 41.660156 8.386718 81.3125 10.851562 113.382812-21.21875 3.527344-3.527344 9.265625-3.527344 12.796875 0 3.539063 3.535156 3.539063 9.261718 0 12.796874-14.050781 14.054688-29.921875 23.179688-48.515625 27.894532-4.019531 1.019531-6.453125 5.101562-5.433594 9.125 1.019532 4.019531 5.105469 6.453125 9.125 5.433594 21.289063-5.398438 39.425782-15.808594 55.445313-31.832032 4.546875-4.546875 7.050781-10.589844 7.050781-17.019531 0-21.378906-26.015625-32.09375-41.089844-17.019531zm-440.433594 237.984375c-3.539062 3.539062-9.261718 3.539062-12.800781 0-3.535156-3.535157-3.539062-9.257813 0-12.796875 24.324219-24.324219 52.839844-31.640625 81.199219-31.640625 13.714844 0 27.398438 1.710937 40.550781 4.039062 1.433594 6.304688 2.894531 12.503907 4.433594 19.183594-41.660156-8.390625-81.3125-10.855469-113.382813 21.214844zm40.753907-7.921875c20.378906-6.261719 44.753906-3.867188 76.214843 2.796875 6.667969 31.460937 9.0625 55.835937 2.796876 76.214843zm116.449219-37.433594c-5.726563-24.730469-10.792969-47.792969-10.570313-68.660156l79.226563 79.226562c-20.867188.222656-43.929688-4.839844-68.65625-10.566406zm87.921874 8.59375-96.519531-96.519531c2.386719-11.390625 7.101563-21.96875 15.078125-31.625l113.0625 113.066406c-9.652344 7.980469-20.226562 12.691406-31.621094 15.078125zm42.246094-25.695312-113.066406-113.066407c9.652344-7.976562 20.230469-12.691406 31.621094-15.078125l96.519531 96.519532c-2.386719 11.390624-7.097656 21.96875-15.074219 31.625zm6.480469-119.550782c5.726563 24.730469 10.789063 47.792969 10.570313 68.660156l-79.226563-79.226562c20.863281-.222656 43.929687 4.839844 68.65625 10.566406zm11.875 148.527344c-40.351563 40.351562-91.324219 34.542969-140.558594 23.867188-1.058593-5.28125-2.210937-10.722657-4.203125-19.464844 49.542969 11.269531 95.941406 18.820312 131.964844-17.203125 79.328125-79.324219-55.277344-216.96875 33.484375-305.726563 3.527344-3.527344 9.265625-3.53125 12.796875 0 3.527344 3.527344 3.527344 9.269532 0 12.796875-79.78125 79.78125 55.757812 216.492188-33.484375 305.730469zm28.359375-188.757812c-6.667969-31.460938-9.0625-55.835938-2.796875-76.214844l79.011719 79.011718c-20.378906 6.265626-44.753906 3.871094-76.214844-2.796874zm0 0"/></svg>