<?xml version="1.0"?>
<svg xmlns="http://www.w3.org/2000/svg" height="512px" viewBox="1 1 511.99975 511" width="512px" class=""><g><script xmlns="" id="tinyhippos-injected"/><path d="m279.210938 357.441406c-1.976563 0-3.957032-.753906-5.46875-2.265625l-117.464844-117.464843c-3.019532-3.019532-3.019532-7.917969 0-10.941407 3.023437-3.019531 7.921875-3.019531 10.941406 0l117.464844 117.464844c3.019531 3.019531 3.019531 7.921875 0 10.941406-1.511719 1.511719-3.492188 2.265625-5.472656 2.265625zm0 0" fill="#8ac129" data-original="#8AC129" class="" data-old_color="#8ac129" style="fill:#8E908A"/><path d="m329.269531 337.507812c-1.980469 0-3.960937-.757812-5.46875-2.265624l-147.28125-147.28125c-3.023437-3.019532-3.023437-7.921876 0-10.941407 3.019531-3.023437 7.921875-3.023437 10.941407 0l147.28125 147.277344c3.019531 3.023437 3.019531 7.921875 0 10.945313-1.511719 1.507812-3.492188 2.265624-5.472657 2.265624zm0 0" fill="#ff4c4c" data-original="#FF4C4C" class="" data-old_color="#ff4c4c" style="fill:#A09B9B"/><path d="m349.207031 287.449219c-1.980469 0-3.960937-.753907-5.472656-2.265625l-117.464844-117.464844c-3.019531-3.019531-3.019531-7.921875 0-10.941406 3.023438-3.023438 7.921875-3.023438 10.945313 0l117.460937 117.460937c3.023438 3.023438 3.023438 7.921875 0 10.945313-1.511719 1.511718-3.492187 2.265625-5.46875 2.265625zm0 0" fill="#8ac129" data-original="#8AC129" class="" data-old_color="#8ac129" style="fill:#8E908A"/><path d="m467.113281 165.089844c-1.980469 0-3.957031-.753906-5.46875-2.265625l-111.859375-111.855469c-3.019531-3.023438-3.019531-7.921875 0-10.941406 3.023438-3.023438 7.921875-3.023438 10.945313 0l111.855469 111.855468c3.023437 3.023438 3.023437 7.921876 0 10.941407-1.511719 1.511719-3.492188 2.265625-5.472657 2.265625zm0 0" fill="#ff4c4c" data-original="#FF4C4C" class="" data-old_color="#ff4c4c" style="fill:#A09B9B"/><path d="m156.855469 475.351562c-1.980469 0-3.960938-.753906-5.472657-2.265624l-111.859374-111.859376c-3.019532-3.019531-3.019532-7.917968 0-10.941406 3.023437-3.019531 7.921874-3.019531 10.945312 0l111.859375 111.859375c3.019531 3.019531 3.019531 7.921875 0 10.941407-1.511719 1.511718-3.492187 2.265624-5.472656 2.265624zm0 0" fill="#ff4c4c" data-original="#FF4C4C" class="" data-old_color="#ff4c4c" style="fill:#A09B9B"/><path d="m142.320312 325.308594c-47.640624-9.007813-97.226562-10.441406-137.324218 29.652344-6.660156 6.664062-6.664063 17.464843 0 24.128906 6.664062 6.664062 17.464844 6.660156 24.128906 0 32.511719-32.511719 73.894531-27.742188 121.542969-17.261719-2.699219-12.277344-5.667969-24.507813-8.347657-36.519531zm0 0" fill="#ffbf14" data-original="#FFBF14" class="" data-old_color="#ffbf14" style="fill:#52504B"/><path d="m142.320312 325.308594c-7.097656-1.34375-14.238281-2.515625-21.386718-3.410156 2.585937 11.816406 5.417968 23.496093 8.140625 35.601562 7.042969 1.230469 14.246093 2.710938 21.59375 4.328125-2.714844-12.34375-5.660157-24.472656-8.347657-36.519531zm0 0" fill="#e0a812" data-original="#E0A812" class="active-path" style="fill:#3E3C39" data-old_color="#e0a812"/><path d="m378.589844 29.625c6.664062-6.664062 6.664062-17.464844 0-24.128906-6.660156-6.664063-17.464844-6.660156-24.125 0-95.144532 95.144531 43.183594 237.292968-34.496094 314.972656-36.816406 36.820312-85.011719 25.828125-140.804688 12.867188 2.851563 12.257812 5.714844 24.605468 8.027344 36.84375 53.359375 11.894531 111.277344 20.046874 156.90625-25.582032 95.382813-95.386718-43.160156-237.320312 34.492188-314.972656zm0 0" fill="#ffbf14" data-original="#FFBF14" class="" data-old_color="#ffbf14" style="fill:#52504B"/><path d="m187.191406 370.179688c6.382813 1.421874 12.828125 2.792968 19.308594 4.019531-2.183594-12.207031-4.925781-24.292969-7.730469-36.390625-6.421875-1.410156-12.960937-2.929688-19.609375-4.472656 2.851563 12.25 5.703125 24.523437 8.03125 36.84375zm0 0" fill="#e0a812" data-original="#E0A812" class="active-path" style="fill:#3E3C39" data-old_color="#e0a812"/><path d="m332.835938 179.660156c-2.84375-12.210937-5.738282-24.730468-8.027344-36.839844-53.359375-11.894531-111.277344-20.046874-156.90625 25.582032-94.941406 94.945312 42.894531 237.585937-34.492188 314.972656-6.664062 6.660156-6.664062 17.464844 0 24.125 6.664063 6.664062 17.464844 6.664062 24.125 0 95.746094-95.742188-43.59375-236.882812 34.496094-314.96875 36.820312-36.820312 85.011719-25.828125 140.804688-12.871094zm0 0" fill="#45748c" data-original="#45748C" class="" data-old_color="#45748c" style="fill:#303436"/><path d="m324.808594 142.820312c-6.535156-1.457031-13.132813-2.855468-19.773438-4.109374 2.097656 12.175781 4.785156 24.257812 7.578125 36.34375 6.621094 1.449218 13.367188 3.011718 20.222657 4.605468-2.84375-12.210937-5.738282-24.730468-8.027344-36.839844zm0 0" fill="#3a6175" data-original="#3A6175" class="" data-old_color="#3a6175" style="fill:#1F2020"/><path d="m507.003906 133.910156c-6.664062-6.664062-17.464844-6.664062-24.128906 0-32.511719 32.511719-73.894531 27.742188-121.546875 17.261719 2.726563 12.382813 5.664063 24.460937 8.351563 36.519531 52.703124 9.964844 99.421874 8.246094 137.324218-29.65625 6.660156-6.660156 6.660156-17.464844 0-24.125zm0 0" fill="#45748c" data-original="#45748C" class="" data-old_color="#45748c" style="fill:#303436"/><path d="m380.238281 155.019531c-6.183593-1.128906-12.492187-2.4375-18.910156-3.847656 2.726563 12.382813 5.664063 24.460937 8.351563 36.519531 6.21875 1.175782 12.46875 2.222656 18.730468 3.0625-2.535156-11.558594-5.484375-23.757812-8.171875-35.734375zm0 0" fill="#3a6175" data-original="#3A6175" class="" data-old_color="#3a6175" style="fill:#1F2020"/></g> </svg>
