<?xml version="1.0" encoding="iso-8859-1"?>
<!-- Generator: Adobe Illustrator 19.0.0, SVG Export Plug-In . SVG Version: 6.00 Build 0)  -->
<svg version="1.1" id="Capa_1" xmlns="http://www.w3.org/2000/svg" xmlns:xlink="http://www.w3.org/1999/xlink" x="0px" y="0px"
	 viewBox="0 0 469.333 469.333" style="enable-background:new 0 0 469.333 469.333;" xml:space="preserve">
<path style="fill:#303C42;" d="M466.208,131.125c-4.167-4.167-10.917-4.167-15.083,0c-1.087,1.087-2.279,1.905-3.414,2.868
	L335.337,21.628c0.965-1.137,1.781-2.331,2.871-3.419c4.167-4.167,4.167-10.917,0-15.083s-10.917-4.167-15.083,0
	c-25,25-24.729,58.375-24.5,85.188L298.667,96c0,7.573,2.25,18.719,5.354,34.146c5.099,25.233,12.017,59.762,11.082,92.053
	l-67.872-67.866c8.186-0.237,16.816-0.105,26.186,0.625c5.375,0.531,11-3.906,11.458-9.792c0.479-5.875-3.917-11.01-9.792-11.479
	c-51.438-4.104-88.083,5.552-111.958,29.438c-45.854,45.854-28.875,130-18.729,180.281c2.083,10.342,3.9,19.449,4.598,25.566
	l-48.522-48.522c1.259,0.141,2.215,0.151,3.695,0.372c5.708,0.896,11.271-3.094,12.146-8.948c0.896-5.823-3.125-11.26-8.938-12.135
	c-4.563-0.698-8.396-1.073-11.375-1.073l-7.688-0.042c-26.875-0.177-60.167-0.51-85.188,24.5c-4.167,4.167-4.167,10.917,0,15.083
	c2.083,2.083,4.813,3.125,7.542,3.125s5.458-1.042,7.542-3.125c1.09-1.089,2.284-1.906,3.422-2.87l112.366,112.366
	c-0.965,1.137-1.781,2.332-2.871,3.421c-4.167,4.167-4.167,10.917,0,15.083c2.083,2.083,4.813,3.125,7.542,3.125
	s5.458-1.042,7.542-3.125c25-25,24.729-58.375,24.5-85.188l-0.042-7.688c0-7.573-2.25-18.719-5.354-34.146
	c-0.469-2.322-0.961-4.775-1.454-7.246c16.245,2.542,34.027,4.538,51.892,4.538c33.542,0,67.167-6.979,90.458-30.271
	c35.622-35.622,33.299-94.305,25.743-142.316c2.345,0.469,5.004,0.964,7.215,1.41c15.438,3.115,26.583,5.365,34.167,5.365
	l7.688,0.042c2.583,0.021,5.208,0.042,7.896,0.042c25.25,0,54.688-1.938,77.292-24.542
	C470.375,142.042,470.375,135.292,466.208,131.125z M428.37,144.819c-9.128,2.987-18.939,4.102-28.969,4.447l-79.322-79.322
	c0.348-10.013,1.461-19.828,4.444-28.964L428.37,144.819z M282.624,297.698c-9.712,6.967-21.063,11.566-33.495,14.169
	l-91.837-91.846c2.618-12.434,7.029-23.928,14.023-33.624L282.624,297.698z M40.995,324.536c9.132-2.973,18.941-4.081,28.962-4.434
	l79.296,79.296c-0.348,10.008-1.46,19.822-4.443,28.953L40.995,324.536z M159.668,309.599c-3.376-19.68-6.046-41.534-5.438-62.471
	l67.818,67.824C200.716,315.579,178.816,312.9,159.668,309.599z M298.023,282.93L186.379,171.296
	c9.122-6.6,20.379-11.178,33.685-13.961l91.982,91.971C309.428,261.741,305.017,273.233,298.023,282.93z M327.993,141.389
	c-1.04-5.398-2.081-10.626-3.056-15.462c-2.082-10.336-3.897-19.438-4.596-25.555l48.62,48.62
	c-6.12-0.699-15.219-2.514-25.565-4.596C338.673,143.439,333.275,142.408,327.993,141.389z"/>
<linearGradient id="SVGID_1_" gradientUnits="userSpaceOnUse" x1="-63.391" y1="616.5803" x2="-48.6819" y2="609.7218" gradientTransform="matrix(21.3333 0 0 -21.3333 1430.1112 13315.2227)">
	<stop  offset="0" style="stop-color:#FFFFFF;stop-opacity:0.2"/>
	<stop  offset="1" style="stop-color:#FFFFFF;stop-opacity:0"/>
</linearGradient>
<path style="fill:url(#SVGID_1_);" d="M466.208,131.125c-4.167-4.167-10.917-4.167-15.083,0c-1.087,1.087-2.279,1.905-3.414,2.868
	L335.337,21.628c0.965-1.137,1.781-2.331,2.871-3.419c4.167-4.167,4.167-10.917,0-15.083s-10.917-4.167-15.083,0
	c-25,25-24.729,58.375-24.5,85.188L298.667,96c0,7.573,2.25,18.719,5.354,34.146c5.099,25.233,12.017,59.762,11.082,92.053
	l-67.872-67.866c8.186-0.237,16.816-0.105,26.186,0.625c5.375,0.531,11-3.906,11.458-9.792c0.479-5.875-3.917-11.01-9.792-11.479
	c-51.438-4.104-88.083,5.552-111.958,29.438c-45.854,45.854-28.875,130-18.729,180.281c2.083,10.342,3.9,19.449,4.598,25.566
	l-48.522-48.522c1.259,0.141,2.215,0.151,3.695,0.372c5.708,0.896,11.271-3.094,12.146-8.948c0.896-5.823-3.125-11.26-8.938-12.135
	c-4.563-0.698-8.396-1.073-11.375-1.073l-7.688-0.042c-26.875-0.177-60.167-0.51-85.188,24.5c-4.167,4.167-4.167,10.917,0,15.083
	c2.083,2.083,4.813,3.125,7.542,3.125s5.458-1.042,7.542-3.125c1.09-1.089,2.284-1.906,3.422-2.87l112.366,112.366
	c-0.965,1.137-1.781,2.332-2.871,3.421c-4.167,4.167-4.167,10.917,0,15.083c2.083,2.083,4.813,3.125,7.542,3.125
	s5.458-1.042,7.542-3.125c25-25,24.729-58.375,24.5-85.188l-0.042-7.688c0-7.573-2.25-18.719-5.354-34.146
	c-0.469-2.322-0.961-4.775-1.454-7.246c16.245,2.542,34.027,4.538,51.892,4.538c33.542,0,67.167-6.979,90.458-30.271
	c35.622-35.622,33.299-94.305,25.743-142.316c2.345,0.469,5.004,0.964,7.215,1.41c15.438,3.115,26.583,5.365,34.167,5.365
	l7.688,0.042c2.583,0.021,5.208,0.042,7.896,0.042c25.25,0,54.688-1.938,77.292-24.542
	C470.375,142.042,470.375,135.292,466.208,131.125z M428.37,144.819c-9.128,2.987-18.939,4.102-28.969,4.447l-79.322-79.322
	c0.348-10.013,1.461-19.828,4.444-28.964L428.37,144.819z M282.624,297.698c-9.712,6.967-21.063,11.566-33.495,14.169
	l-91.837-91.846c2.618-12.434,7.029-23.928,14.023-33.624L282.624,297.698z M40.995,324.536c9.132-2.973,18.941-4.081,28.962-4.434
	l79.296,79.296c-0.348,10.008-1.46,19.822-4.443,28.953L40.995,324.536z M159.668,309.599c-3.376-19.68-6.046-41.534-5.438-62.471
	l67.818,67.824C200.716,315.579,178.816,312.9,159.668,309.599z M298.023,282.93L186.379,171.296
	c9.122-6.6,20.379-11.178,33.685-13.961l91.982,91.971C309.428,261.741,305.017,273.233,298.023,282.93z M327.993,141.389
	c-1.04-5.398-2.081-10.626-3.056-15.462c-2.082-10.336-3.897-19.438-4.596-25.555l48.62,48.62
	c-6.12-0.699-15.219-2.514-25.565-4.596C338.673,143.439,333.275,142.408,327.993,141.389z"/>
<g>
</g>
<g>
</g>
<g>
</g>
<g>
</g>
<g>
</g>
<g>
</g>
<g>
</g>
<g>
</g>
<g>
</g>
<g>
</g>
<g>
</g>
<g>
</g>
<g>
</g>
<g>
</g>
<g>
</g>
</svg>
