<svg height="512" viewBox="0 0 64 64" width="512" xmlns="http://www.w3.org/2000/svg"><path d="m6 55a3 3 0 0 0 0 6h52a3 3 0 0 0 0-6z" fill="#006df0"/><g fill="#f00"><path d="m52 45a19.994 19.994 0 0 0 -20-20v30h20z"/><path d="m31 6h2v12h-2z"/><path d="m17 9.751h2v12h-2z" transform="matrix(.866 -.5 .5 .866 -5.464 11.11)"/><path d="m40 14.751h12v2h-12z" transform="matrix(.5 -.866 .866 .5 9.362 47.716)"/><path d="m6.751 20h2v12h-2z" transform="matrix(.5 -.866 .866 .5 -18.641 19.713)"/><path d="m50.249 25h12v2h-12z" transform="matrix(.866 -.5 .5 .866 -5.465 31.602)"/></g><path d="m12 45v10h20v-30a19.994 19.994 0 0 0 -20 20z" fill="#c00"/><path d="m23.7 32.511-1.109-1.664a16.977 16.977 0 0 1 2.119-1.2l.859 1.806a15.008 15.008 0 0 0 -1.869 1.058z" fill="#f1f2f2"/><path d="m15 45v5h2v-5a15.008 15.008 0 0 1 5.114-11.271l-1.32-1.5a17.011 17.011 0 0 0 -5.794 12.771z" fill="#f1f2f2"/><path d="m31 33a1 1 0 0 0 -1 1v4a1 1 0 0 1 -1 1h-4a1 1 0 0 0 -1 1v2a1 1 0 0 0 1 1h4a1 1 0 0 1 1 1v4a1 1 0 0 0 1 1h1v-16z" fill="#d1d3d4"/><path d="m39 39h-4a1 1 0 0 1 -1-1v-4a1 1 0 0 0 -1-1h-1v16h1a1 1 0 0 0 1-1v-4a1 1 0 0 1 1-1h4a1 1 0 0 0 1-1v-2a1 1 0 0 0 -1-1z" fill="#f1f2f2"/></svg>