<svg height="512" viewBox="0 0 64 64" width="512" xmlns="http://www.w3.org/2000/svg"><g id="Hearth_report" data-name="Hearth report"><path d="m50 9v48h-29v-8h-7v-40z" fill="#efeadd"/><path d="m14 32v17h7v8h20c-14.924 0-27-12.287-27-25z" fill="#d1cdc1"/><path d="m14 49 7 8v-8z" fill="#006df0"/><path d="m54 57v-44a4 4 0 0 0 -4-4v48h-29l-7-8v-40a4 4 0 0 0 -4 4v44a4 4 0 0 0 4 4h36a4 4 0 0 0 4-4z" fill="#808285"/><path d="m52.72 59.93a4.011 4.011 0 0 1 -2.72 1.07h-36a4 4 0 0 1 -4-4v-44a4 4 0 0 1 3.28-3.93 3.97 3.97 0 0 0 -1.28 2.93v44a4 4 0 0 0 4 4h36a3.383 3.383 0 0 0 .72-.07z" fill="#6d6e71"/><path d="m41 13v-4a2 2 0 0 0 -2-2h-1.43a1.941 1.941 0 0 1 -1.8-1.348 4 4 0 0 0 -7.534 0 1.941 1.941 0 0 1 -1.806 1.348h-1.43a2 2 0 0 0 -2 2v4z" fill="#005ece"/><path d="m20 25h24v4h-24z" fill="#ed1c24"/><path d="m31 22h2v-2h2v-2h-2v-2h-2v2h-2v2h2z" fill="#ed1c24"/><g fill="#2488ff"><path d="m21 32h2v2h-2z"/><path d="m21 36h2v2h-2z"/><path d="m25 32h18v2h-18z"/><path d="m25 36h18v2h-18z"/><path d="m21 40h2v2h-2z"/><path d="m25 40h18v2h-18z"/></g><path d="m26 47h16v6h-16z" fill="#ffcd00"/></g></svg>