<?xml version="1.0" encoding="iso-8859-1"?>
<!-- Generator: Adobe Illustrator 19.0.0, SVG Export Plug-In . SVG Version: 6.00 Build 0)  -->
<svg version="1.1" id="Capa_1" xmlns="http://www.w3.org/2000/svg" xmlns:xlink="http://www.w3.org/1999/xlink" x="0px" y="0px"
	 viewBox="0 0 358.08 358.08" style="enable-background:new 0 0 358.08 358.08;" xml:space="preserve">
<g>
	<g id="Guides_For_Artboard_30_">
	</g>
	<g id="Artwork_29_">
	</g>
	<g id="Layer_2_29_">
		<g>
			<path style="fill:#E74424;" d="M313.862,1.375H179.04H44.218C19.797,1.375,0,21.172,0,45.592v266.896
				c0,24.42,19.797,44.217,44.218,44.217H179.04h88.697V310.58c0-24.421,19.797-44.218,44.217-44.218l46.126-2.25V45.592
				C358.08,21.172,338.283,1.375,313.862,1.375z M270.885,186.871c0,12.93-10.482,23.414-23.419,23.414h-37.178v37.18
				c0,12.936-10.481,23.422-23.419,23.422h-13.526h-2.133c-12.934,0-23.423-10.486-23.423-23.422v-37.18h-37.178
				c-12.928,0-23.414-10.484-23.414-23.414v-15.668c0-12.93,10.486-23.414,23.414-23.414h37.178v-37.176
				c0-12.938,10.489-23.42,23.423-23.42h2.133h13.526c12.938,0,23.419,10.482,23.419,23.42v37.176h37.178
				c12.937,0,23.419,10.484,23.419,23.414V186.871z"/>
			<path style="fill:#D43D21;" d="M267.654,309.432v47.273l90.426-92.593h-45.107C287.944,264.112,267.654,284.402,267.654,309.432z
				"/>
			<path style="fill:#F7F1E6;" d="M247.466,147.789h-37.178v-37.176c0-12.938-10.481-23.42-23.419-23.42h-13.526h-2.133
				c-12.934,0-23.423,10.482-23.423,23.42v37.176h-37.178c-12.928,0-23.414,10.484-23.414,23.414v15.668
				c0,12.93,10.486,23.414,23.414,23.414h37.178v37.18c0,12.936,10.489,23.422,23.423,23.422h2.133h13.526
				c12.938,0,23.419-10.486,23.419-23.422v-37.18h37.178c12.937,0,23.419-10.484,23.419-23.414v-15.668
				C270.885,158.273,260.402,147.789,247.466,147.789z"/>
		</g>
	</g>
</g>
<g>
</g>
<g>
</g>
<g>
</g>
<g>
</g>
<g>
</g>
<g>
</g>
<g>
</g>
<g>
</g>
<g>
</g>
<g>
</g>
<g>
</g>
<g>
</g>
<g>
</g>
<g>
</g>
<g>
</g>
</svg>
