<?xml version="1.0"?>
<svg xmlns="http://www.w3.org/2000/svg" xmlns:xlink="http://www.w3.org/1999/xlink" version="1.1" id="Capa_1" x="0px" y="0px" viewBox="0 0 423.448 423.448" style="enable-background:new 0 0 423.448 423.448;" xml:space="preserve" width="512px" height="512px" class=""><g><script xmlns="" id="tinyhippos-injected"/><g>
	<g id="Guides_For_Artboard_17_">
	</g>
	<g id="Artwork_16_">
	</g>
	<g id="Layer_2_16_">
		<g>
			<path style="fill:#E0DCD3;" d="M130.637,294.571h138.461c5.931,0,10.74-4.808,10.74-10.74c0-5.931-4.809-10.739-10.74-10.739     H130.637c-5.932,0-10.74,4.808-10.74,10.739C119.897,289.763,124.706,294.571,130.637,294.571z" data-original="#E0DCD3" class=""/>
			<path style="fill:#1273EB" d="M276.029,13.177C276.03,13.177,276.03,13.177,276.029,13.177     c7.409,4.8,12.614,11.722,15.35,19.452c5.361-10.109,2.199-22.801-7.57-29.131l0,0c-9.218-5.886-21.114-4.122-28.307,3.632     C262.543,7.159,269.659,9.11,276.029,13.177z" data-original="#5A9794" class="active-path" data-old_color="#5A9794"/>
			<path style="fill:#438DE9" d="M287.479,66.344c1.645-2.557,2.938-5.238,3.913-7.985c0.086-0.243,0.181-0.485,0.262-0.729     c2.74-8.244,2.54-17.05-0.274-25.001c-2.736-7.73-7.941-14.652-15.349-19.452c0,0,0,0-0.001,0     c-6.37-4.067-13.486-6.018-20.528-6.048c-12.725-0.056-25.206,6.178-32.601,17.674c0,0-51.045,79.353-62.962,97.878     c-0.068,0.106-0.128,0.21-0.194,0.316c0.239,0.143,0.482,0.276,0.716,0.434l57.828,39.164c1.76,1.192,3.162,2.71,4.205,4.412     c0.695-0.85,1.374-1.771,2.025-2.784c8.192-12.737,34.88-54.225,50.759-78.91C282.495,74.093,287.479,66.344,287.479,66.344z" data-original="#81B6B2" class="" data-old_color="#81B6B2"/>
			<path style="fill:#C7EBFF" d="M219.289,161.595l-57.828-39.164c-0.234-0.158-0.477-0.291-0.716-0.434     c-6.526-3.894-15.033-2.078-19.349,4.295c-4.475,6.606-2.746,15.59,3.861,20.065l57.828,39.164     c6.607,4.475,15.59,2.746,20.065-3.861c3.282-4.847,3.214-10.966,0.343-15.653C222.451,164.305,221.048,162.787,219.289,161.595z     " data-original="#77A7A2" class="" data-old_color="#77A7A2"/>
			<path style="fill:#2B3237" d="M366.024,385.954h-29.708v-65.899c24.22-32.203,59.915-91.308,51.811-151.712     c-5.413-40.34-30.339-74.428-72.083-98.58c-8.445-4.886-16.758-8.889-24.39-12.133c-0.081,0.244-0.176,0.486-0.262,0.729     c-0.975,2.747-2.268,5.428-3.913,7.985c0,0-4.984,7.749-12.202,18.969c29.781,11.981,74.795,38.063,81.462,87.751     c6.085,45.35-19.931,92.359-40.641,121.601H100.429c-7.245,0-13.118,5.873-13.118,13.118s5.873,13.118,13.118,13.118h151.197     v65.054H52.894c-10.354,0-18.747,8.393-18.747,18.746c0,10.354,8.393,18.747,18.747,18.747h313.129     c10.353,0,18.747-8.393,18.747-18.747C384.77,394.347,376.376,385.954,366.024,385.954z" data-original="#2B3237" class="" data-old_color="#2B3237"/>
		</g>
	</g>
</g></g> </svg>
