<?xml version="1.0" encoding="iso-8859-1"?>
<!-- Generator: Adobe Illustrator 19.0.0, SVG Export Plug-In . SVG Version: 6.00 Build 0)  -->
<svg version="1.1" id="Capa_1" xmlns="http://www.w3.org/2000/svg" xmlns:xlink="http://www.w3.org/1999/xlink" x="0px" y="0px"
	 viewBox="0 0 396.764 396.764" style="enable-background:new 0 0 396.764 396.764;" xml:space="preserve">
<g>
	<g id="Guides_For_Artboard_5_">
	</g>
	<g id="Artwork_5_">
	</g>
	<g id="Layer_2_5_">
		<g>
			<path style="fill:#F7F1E6;" d="M216.114,216.113c1.917-1.917,3.999-3.566,6.194-4.966c15.661-18.268,24.203-41.269,24.203-65.586
				c0-26.965-10.5-52.316-29.568-71.382c-19.067-19.069-44.418-29.57-71.384-29.57c-26.965,0-52.316,10.501-71.383,29.568
				s-29.567,44.42-29.567,71.384c0,26.967,10.5,52.316,29.567,71.383c19.067,19.068,44.418,29.568,71.383,29.568
				c24.318,0,47.321-8.543,65.588-24.204C212.547,220.112,214.197,218.03,216.114,216.113z M167.027,188.174
				c0,0-7.729,7.76-10.05,9.748c-1.74,1.499-5.53,4.512-9.628,4.512c-4.104,0-7.886-3.013-9.636-4.512
				c-2.32-1.988-10.048-9.748-10.048-9.748c-15.489-14.57-34.713-32.656-37.357-48.764c-1.854-11.381-0.045-20.768,5.386-27.896
				c5.477-7.194,13.815-11.298,25.494-12.55c1.129-0.113,2.146-0.166,3.172-0.166c8.248,0,16.588,3.073,22.983,8.272
				c6.403-5.199,14.736-8.272,22.999-8.272c1.018,0,2.042,0.053,3.165,0.166c11.676,1.252,20.008,5.355,25.492,12.55
				c5.432,7.128,7.239,16.515,5.386,27.896C201.74,155.51,182.514,173.604,167.027,188.174z"/>
			<path style="fill:#2B3237;" d="M388.168,346.664L284.636,243.132c1.696,11.062-1.71,22.755-10.232,31.274
				c-7.106,7.106-16.419,10.659-25.731,10.659c-1.853,0-3.704-0.146-5.539-0.428l103.529,103.529
				c5.731,5.731,13.242,8.597,20.752,8.597s15.021-2.865,20.752-8.597C399.629,376.707,399.629,358.124,388.168,346.664z"/>
			<path style="fill:#F3DBBD;" d="M211.147,222.308c1.989-1.706,3.924-3.492,5.796-5.364c1.873-1.873,3.66-3.808,5.365-5.797
				c-2.195,1.399-4.277,3.049-6.194,4.966C214.197,218.03,212.547,220.112,211.147,222.308z"/>
			<path style="fill:#F3DBBD;" d="M274.404,274.407c8.521-8.52,11.928-20.213,10.232-31.274c-1.132-7.39-4.538-14.498-10.229-20.189
				l-3.418-3.419c-6.177,10.435-13.703,20.164-22.501,28.963c-8.799,8.799-18.529,16.326-28.963,22.503l3.415,3.415
				c5.694,5.695,12.804,9.102,20.196,10.233c1.835,0.281,3.686,0.428,5.539,0.428C257.985,285.066,267.298,281.513,274.404,274.407z
				"/>
			<path style="fill:#2B3237;" d="M248.487,248.487c8.798-8.799,16.325-18.528,22.501-28.963
				c13.124-22.168,20.132-47.525,20.132-73.963c0-38.88-15.141-75.435-42.633-102.926C220.994,15.143,184.441,0,145.559,0
				C106.678,0,70.125,15.143,42.633,42.635C15.14,70.126,0,106.681,0,145.561c0,38.882,15.141,75.436,42.633,102.926
				c27.493,27.494,64.045,42.633,102.926,42.633c26.438,0,51.795-7.006,73.964-20.13
				C229.958,264.813,239.688,257.286,248.487,248.487z M74.176,216.944c-19.067-19.066-29.567-44.416-29.567-71.383
				c0-26.964,10.5-52.316,29.567-71.384c19.067-19.067,44.418-29.568,71.383-29.568c26.966,0,52.317,10.501,71.384,29.57
				c19.067,19.065,29.568,44.417,29.568,71.382c0,24.317-8.542,47.318-24.203,65.586c-1.706,1.989-3.493,3.924-5.365,5.797
				c-1.872,1.872-3.807,3.658-5.796,5.364c-18.267,15.661-41.27,24.204-65.588,24.204
				C118.595,246.512,93.244,236.012,74.176,216.944z"/>
			<path style="fill:#D43D21;" d="M198.997,111.515c-5.484-7.194-13.816-11.298-25.492-12.55c-1.122-0.113-2.147-0.166-3.165-0.166
				c-8.263,0-16.596,3.073-22.999,8.272c-6.395-5.199-14.735-8.272-22.983-8.272c-1.026,0-2.042,0.053-3.172,0.166
				c-11.678,1.252-20.017,5.355-25.494,12.55c-5.431,7.128-7.24,16.515-5.386,27.896c2.644,16.107,21.869,34.193,37.357,48.764
				c0,0,7.729,7.76,10.048,9.748c1.75,1.499,5.532,4.512,9.636,4.512c4.098,0,7.888-3.013,9.628-4.512
				c2.32-1.988,10.05-9.748,10.05-9.748c15.487-14.57,34.713-32.664,37.356-48.764C206.236,128.03,204.429,118.643,198.997,111.515z
				"/>
		</g>
	</g>
</g>
<g>
</g>
<g>
</g>
<g>
</g>
<g>
</g>
<g>
</g>
<g>
</g>
<g>
</g>
<g>
</g>
<g>
</g>
<g>
</g>
<g>
</g>
<g>
</g>
<g>
</g>
<g>
</g>
<g>
</g>
</svg>
