<?xml version="1.0" encoding="iso-8859-1"?>
<!-- Generator: Adobe Illustrator 19.0.0, SVG Export Plug-In . SVG Version: 6.00 Build 0)  -->
<svg version="1.1" id="Capa_1" xmlns="http://www.w3.org/2000/svg" xmlns:xlink="http://www.w3.org/1999/xlink" x="0px" y="0px"
	 viewBox="0 0 469.333 469.333" style="enable-background:new 0 0 469.333 469.333;" xml:space="preserve">
<path style="fill:#303C42;" d="M330.667,0c-37.063,0-71.875,14.427-98.042,40.615l-192,192C14.438,258.813,0,293.635,0,330.667
	c0,76.458,62.208,138.667,138.667,138.667c37.063,0,71.875-14.427,98.042-40.615l192-191.99
	c26.188-26.198,40.625-61.021,40.625-98.063C469.333,62.208,407.125,0,330.667,0z"/>
<path style="fill:#E53935;" d="M221.625,413.635C199.479,435.792,170.021,448,138.667,448c-64.688,0-117.333-52.635-117.333-117.333
	c0-31.333,12.208-60.802,34.375-82.969l88.458-88.458l165.919,165.94L221.625,413.635z"/>
<path style="fill:#F2F2F2;" d="M413.625,221.646l-88.456,88.451L159.25,144.156l88.458-88.458
	c22.146-22.156,51.604-34.365,82.958-34.365C395.354,21.333,448,73.969,448,138.667C448,170.01,435.792,199.479,413.625,221.646z"/>
<path style="opacity:0.1;enable-background:new    ;" d="M144.167,159.24l-0.001,0.001l144.587,144.605l-88.461,88.456
	c-22.146,22.156-51.604,34.365-82.958,34.365c-26.917,0-51.672-9.208-71.493-24.512C67.316,429.974,100.891,448,138.667,448
	c31.354,0,60.813-12.208,82.958-34.365l88.461-88.456L144.167,159.24z"/>
<path style="opacity:0.1;enable-background:new    ;" d="M402.16,45.845c15.299,19.819,24.507,44.572,24.507,71.488
	c0,31.344-12.208,60.813-34.375,82.979l-88.454,88.449l21.332,21.335l88.456-88.451C435.792,199.479,448,170.01,448,138.667
	C448,100.889,429.974,67.319,402.16,45.845z"/>
<linearGradient id="SVGID_1_" gradientUnits="userSpaceOnUse" x1="-63.9031" y1="616.8191" x2="-48.1697" y2="609.4829" gradientTransform="matrix(21.3333 0 0 -21.3333 1430.1112 13315.2227)">
	<stop  offset="0" style="stop-color:#FFFFFF;stop-opacity:0.2"/>
	<stop  offset="1" style="stop-color:#FFFFFF;stop-opacity:0"/>
</linearGradient>
<path style="fill:url(#SVGID_1_);" d="M330.667,0c-37.063,0-71.875,14.427-98.042,40.615l-192,192
	C14.438,258.813,0,293.635,0,330.667c0,76.458,62.208,138.667,138.667,138.667c37.063,0,71.875-14.427,98.042-40.615l192-191.99
	c26.188-26.198,40.625-61.021,40.625-98.063C469.333,62.208,407.125,0,330.667,0z"/>
<g>
</g>
<g>
</g>
<g>
</g>
<g>
</g>
<g>
</g>
<g>
</g>
<g>
</g>
<g>
</g>
<g>
</g>
<g>
</g>
<g>
</g>
<g>
</g>
<g>
</g>
<g>
</g>
<g>
</g>
</svg>
