<?xml version="1.0" encoding="iso-8859-1"?>
<!-- Generator: Adobe Illustrator 19.0.0, SVG Export Plug-In . SVG Version: 6.00 Build 0)  -->
<svg version="1.1" id="Capa_1" xmlns="http://www.w3.org/2000/svg" xmlns:xlink="http://www.w3.org/1999/xlink" x="0px" y="0px"
	 viewBox="0 0 469.333 469.333" style="enable-background:new 0 0 469.333 469.333;" xml:space="preserve">
<path style="fill:#303C42;" d="M379.211,201.206l15.612-15.612c20.531-20.531,31.844-47.833,31.844-76.875
	C426.667,48.771,377.896,0,317.948,0c-29.042,0-56.344,11.313-76.875,31.844L31.844,241.073C11.313,261.604,0,288.906,0,317.948
	c0,59.948,48.771,108.719,108.719,108.719c29.042,0,56.344-11.313,76.875-31.844l15.612-15.612
	c19.977,53.771,70.69,90.122,129.461,90.122c76.458,0,138.667-62.208,138.667-138.667
	C469.333,271.896,432.982,221.182,379.211,201.206z"/>
<path style="fill:#F2F2F2;" d="M330.667,448c-53.092,0-98.408-35.047-112.556-85.694l144.195-144.195
	C412.953,232.259,448,277.574,448,330.667C448,395.365,395.365,448,330.667,448z"/>
<path style="opacity:0.1;enable-background:new    ;" d="M395.828,233.501C408.477,252.22,416,274.542,416,298.667
	C416,363.365,363.365,416,298.667,416c-24.125,0-46.447-7.523-65.165-20.172C254.607,427.729,290.352,448,330.667,448
	C395.365,448,448,395.365,448,330.667C448,290.352,427.729,254.607,395.828,233.501z"/>
<path style="fill:#F2F2F2;" d="M256.156,46.927c16.271-16.26,38.792-25.594,61.792-25.594c48.188,0,87.385,39.198,87.385,87.385
	c0,23-9.333,45.521-25.594,61.792L277.333,272.917L153.75,149.333L256.156,46.927z"/>
<path style="fill:#D32F2F;" d="M170.51,379.74c-16.271,16.26-38.792,25.594-61.792,25.594c-48.188,0-87.385-39.198-87.385-87.385
	c0-23,9.333-45.521,25.594-61.792l91.74-91.74L262.25,288L170.51,379.74z"/>
<path style="opacity:0.1;enable-background:new    ;" d="M361.341,33.326c7.421,12.839,11.992,27.527,11.992,43.393
	c0,23-9.333,45.521-25.594,61.792L245.333,240.917l32,32L379.74,170.51c16.26-16.271,25.594-38.792,25.594-61.792
	C405.333,76.397,387.495,48.441,361.341,33.326z"/>
<path style="opacity:0.1;enable-background:new    ;" d="M230.25,256l-91.74,91.74C122.24,364,99.719,373.333,76.719,373.333
	c-15.866,0-30.555-4.572-43.393-11.992c15.116,26.154,43.072,43.992,75.393,43.992c23,0,45.521-9.333,61.792-25.594L262.25,288
	L230.25,256z"/>
<path style="fill:#999999;" d="M387.125,259.125l-128,128c-4.167,4.167-4.167,10.917,0,15.083c2.083,2.083,4.813,3.125,7.542,3.125
	c2.729,0,5.458-1.042,7.542-3.125l128-128c4.167-4.167,4.167-10.917,0-15.083C398.042,254.958,391.292,254.958,387.125,259.125z"/>
<linearGradient id="SVGID_1_" gradientUnits="userSpaceOnUse" x1="-63.8074" y1="617.3083" x2="-44.5215" y2="608.3154" gradientTransform="matrix(21.3333 0 0 -21.3333 1430.1112 13315.2227)">
	<stop  offset="0" style="stop-color:#FFFFFF;stop-opacity:0.2"/>
	<stop  offset="1" style="stop-color:#FFFFFF;stop-opacity:0"/>
</linearGradient>
<path style="fill:url(#SVGID_1_);" d="M379.211,201.206l15.612-15.612c20.531-20.531,31.844-47.833,31.844-76.875
	C426.667,48.771,377.896,0,317.948,0c-29.042,0-56.344,11.313-76.875,31.844L31.844,241.073C11.313,261.604,0,288.906,0,317.948
	c0,59.948,48.771,108.719,108.719,108.719c29.042,0,56.344-11.313,76.875-31.844l15.612-15.612
	c19.977,53.771,70.69,90.122,129.461,90.122c76.458,0,138.667-62.208,138.667-138.667
	C469.333,271.896,432.982,221.182,379.211,201.206z"/>
<g>
</g>
<g>
</g>
<g>
</g>
<g>
</g>
<g>
</g>
<g>
</g>
<g>
</g>
<g>
</g>
<g>
</g>
<g>
</g>
<g>
</g>
<g>
</g>
<g>
</g>
<g>
</g>
<g>
</g>
</svg>
