<?xml version="1.0"?>
<svg xmlns="http://www.w3.org/2000/svg" height="512px" viewBox="0 -41 488.1941 488" width="512px" class=""><g><script xmlns="" id="tinyhippos-injected"/><path d="m457.550781 283.746094c11.4375 4.183594 19.824219 14.085937 22.074219 26.054687 2.246094 11.96875-1.976562 24.238281-11.113281 32.285157l-.183594.152343c-6.542969-8.300781-16.535156-13.140625-27.109375-13.132812h-53.570312v-.019531l22.929687-62.558594zm0 0" fill="#00acea" data-original="#00ACEA" class="active-path" style="fill:#C7EBFF" data-old_color="#00acea"/><path d="m468.328125 342.238281c8.207031 10.386719 9.75 24.550781 3.976563 36.464844-5.773438 11.910156-17.847657 19.476563-31.085938 19.472656h-50.027344v-69.070312h50.027344c10.574219-.007813 20.566406 4.832031 27.109375 13.132812zm0 0" fill="#00acea" data-original="#00ACEA" class="active-path" style="fill:#C7EBFF" data-old_color="#00acea"/><g fill="#00efd1"><path d="m410.578125 266.527344-22.929687 62.558594v.019531h-7.039063l-40.78125-14.9375c-11.605469-4.234375-20.066406-14.34375-22.191406-26.515625-2.125-12.167969 2.414062-24.546875 11.902343-32.460938 9.488282-7.914062 22.480469-10.15625 34.070313-5.882812zm0 0" data-original="#00EFD1" class="" style="fill:#FFFFFF" data-old_color="#00EFD1"/><path d="m380.609375 329.105469h10.582031v69.070312h-50.019531c-19.074219 0-34.535156-15.460937-34.535156-34.535156 0-19.070313 15.460937-34.535156 34.535156-34.535156zm0 0" data-original="#00EFD1" class="" style="fill:#FFFFFF" data-old_color="#00EFD1"/><path d="m284.929688 186.238281v174.847657c-.058594 20.460937-16.628907 37.03125-37.089844 37.089843h-202.960938c-20.457031-.058593-37.027344-16.628906-37.089844-37.089843v-174.847657c0-30.402343 18.511719-58.03125 46.050782-69.082031v-34.539062h185.039062v34.539062c13.710938 5.441406 25.414063 14.96875 33.519532 27.289062 8.195312 12.398438 12.554687 26.933594 12.53125 41.792969zm-56.929688 91.859375v-46h-57v-57h-49v57h-56v46h56v57h49v-57zm0 0" data-original="#00EFD1" class="" style="fill:#FFFFFF" data-old_color="#00EFD1"/></g><path d="m238.878906 82.617188h-194.25v-74.601563h203.460938v74.601563zm0 0" fill="#00acea" data-original="#00ACEA" class="active-path" style="fill:#C7EBFF" data-old_color="#00acea"/><path d="m228 232.097656v46h-57v57h-49v-57h-56v-46h56v-57h49v57zm0 0" fill="#fedb41" data-original="#FEDB41" class="" style="fill:#FF9595" data-old_color="#fedb41"/><path d="m247 111.929688v-20.832032h1.089844c4.417968 0 7.910156-4.0625 7.910156-8.480468v-74.601563c.015625-2.101563-.808594-4.125-2.296875-5.613281-1.488281-1.488282-3.507813-2.3203128-5.613281-2.3046878h-203.460938c-2.074218-.0039062-4.0625.8398438-5.5 2.3359378-1.441406 1.492187-2.210937 3.511718-2.128906 5.582031v74.601563c0 4.417968 3.210938 8.480468 7.628906 8.480468h1.371094v20.867188c-28 13.476562-46 42.640625-46 74.273437v174.871094c-.0117188 24.808594 20.070312 44.941406 44.878906 44.988281h202.984375c24.863281-.039062 45.027344-20.148437 45.136719-45.011718v-174.847657c.046875-16.429687-4.765625-32.507812-13.835938-46.210937-7.964843-12.117188-19.085937-21.832032-32.164062-28.097656zm-194-95.832032h187v59h-187zm224 344.964844c-.089844 16.050781-13.113281 29.015625-29.160156 29.035156h-202.941406c-15.988282-.03125-28.929688-13.019531-28.898438-29.011718v-174.847657c0-27.03125 16.382812-51.839843 40.925781-61.6875l-3.085937-7.453125h8.160156v-26h169v26h7.878906l-2.933594 7.472656c12.203126 4.832032 22.617188 13.3125 29.824219 24.285157 7.34375 11.082031 11.253907 24.085937 11.230469 37.382812zm0 0" fill="#083863" data-original="#083863" class="" style="fill:#6D767E" data-old_color="#083863"/><path d="m228 224.097656h-49v-49c0-4.417968-3.582031-8-8-8h-49c-4.417969 0-8 3.582032-8 8v49h-48c-4.417969 0-8 3.582032-8 8v46c0 4.417969 3.582031 8 8 8h48v49c0 4.417969 3.582031 8 8 8h49c4.417969 0 8-3.582031 8-8v-49h49c4.417969 0 8-3.582031 8-8v-46c0-4.417968-3.582031-8-8-8zm-8 46h-49c-4.417969 0-8 3.582032-8 8v49h-33v-49c0-4.417968-3.582031-8-8-8h-48v-30h48c4.417969 0 8-3.582031 8-8v-49h33v49c0 4.417969 3.582031 8 8 8h49zm0 0" fill="#083863" data-original="#083863" class="" style="fill:#6D767E" data-old_color="#083863"/><path d="m460.300781 276.234375-93.933593-34.4375c-21.910157-8.035156-46.203126 3.085937-54.441407 24.921875-8.234375 21.835938 2.660157 46.230469 24.417969 54.667969-22.40625 2.527343-38.9375 22.125-37.65625 44.636719 1.285156 22.515624 19.933594 40.105468 42.484375 40.074218h100.046875c15.027344.011719 28.941406-7.910156 36.601562-20.832031 7.660157-12.925781 7.929688-28.933594.707032-42.109375.75-.914062 1.480468-1.84375 2.160156-2.824219 7.457031-10.832031 9.492188-24.503906 5.503906-37.039062-3.984375-12.535157-13.542968-22.523438-25.886718-27.058594zm10.28125 49.0625c-.679687 1.839844-1.558593 3.601563-2.621093 5.253906-7.558594-6.132812-17.003907-9.472656-26.742188-9.453125h-42.117188l16.242188-44.308594 39.457031 14.464844c13.742188 5.058594 20.804688 20.285156 15.785157 34.042969zm-143.769531-52.699219c2.414062-6.613281 7.363281-11.992187 13.75-14.953125 6.386719-2.960937 13.6875-3.257812 20.292969-.828125l39.460937 14.46875-14.019531 38.25c1.507813-4.144531-.621094-8.730468-4.765625-10.25l-31.949219-11.707031c-4.132812-1.472656-8.679687.660156-10.191406 4.78125s.582031 8.6875 4.6875 10.238281l31.949219 11.710938c1.992187.730468 4.191406.640625 6.113281-.25 1.925781-.890625 3.417969-2.511719 4.144531-4.503906l-4.230468 11.542968h-.027344l-39.441406-14.445312c-13.746094-5.0625-20.804688-20.296875-15.773438-34.054688zm-12.183594 91.003906c.019532-14.644531 11.898438-26.503906 26.542969-26.503906h41.828125v40.570313c0-2.046875-.828125-4.007813-2.296875-5.433594-1.46875-1.429687-3.457031-2.199219-5.503906-2.136719h-34.027344c-4.421875 0-8 3.582032-8 8 0 4.417969 3.578125 8 8 8h34.027344c4.363281-.089844 7.839843-3.671875 7.800781-8.03125v12.03125h-41.828125c-14.644531.003906-26.519531-11.855468-26.542969-26.496094zm145.351563 18.773438c-4.96875 4.980469-11.726563 7.761719-18.761719 7.722656h-42.21875v-53h42.21875c10.734375-.011718 20.414062 6.449219 24.523438 16.363282 4.105468 9.917968 1.832031 21.332031-5.761719 28.914062zm0 0" fill="#083863" data-original="#083863" class="" style="fill:#6D767E" data-old_color="#083863"/></g> </svg>
