<?xml version="1.0" encoding="iso-8859-1"?>
<!-- Generator: Adobe Illustrator 19.0.0, SVG Export Plug-In . SVG Version: 6.00 Build 0)  -->
<svg version="1.1" id="Layer_1" xmlns="http://www.w3.org/2000/svg" xmlns:xlink="http://www.w3.org/1999/xlink" x="0px" y="0px"
	 viewBox="0 0 469.333 469.333" style="enable-background:new 0 0 469.333 469.333;" xml:space="preserve">
<g>
	<g>
		<g>
			<path d="M129.292,203.958L62.01,271.24c-12.292,12.302-19.344,29.333-19.344,46.708c0,5.896,4.771,10.667,10.667,10.667
				c5.896,0,10.667-4.771,10.667-10.667c0-11.771,4.771-23.292,13.094-31.625l67.281-67.281c4.167-4.167,4.167-10.917,0-15.083
				C140.208,199.792,133.458,199.792,129.292,203.958z"/>
			<path d="M379.211,201.206l15.612-15.612c20.531-20.531,31.844-47.833,31.844-76.875C426.667,48.771,377.896,0,317.948,0
				c-29.042,0-56.344,11.313-76.875,31.844L31.844,241.073C11.312,261.604,0,288.906,0,317.948
				c0,59.948,48.771,108.719,108.719,108.719c29.042,0,56.344-11.313,76.875-31.844l15.612-15.612
				c19.977,53.771,70.69,90.122,129.461,90.122c76.458,0,138.667-62.208,138.667-138.667
				C469.333,271.896,432.982,221.182,379.211,201.206z M256.156,46.927c16.271-16.26,38.792-25.594,61.792-25.594
				c48.188,0,87.385,39.198,87.385,87.385c0,23-9.333,45.521-25.594,61.792L277.333,272.917L153.75,149.333L256.156,46.927z
				 M170.51,379.74c-16.271,16.26-38.792,25.594-61.792,25.594c-48.188,0-87.385-39.198-87.385-87.385
				c0-23,9.333-45.521,25.594-61.792l91.74-91.74L262.25,288L170.51,379.74z M330.667,448c-53.092,0-98.408-35.047-112.556-85.694
				l144.195-144.195C412.953,232.259,448,277.574,448,330.667C448,395.365,395.365,448,330.667,448z"/>
			<path d="M387.125,259.125l-128,128c-4.167,4.167-4.167,10.917,0,15.083c2.083,2.083,4.813,3.125,7.542,3.125
				s5.458-1.042,7.542-3.125l128-128c4.167-4.167,4.167-10.917,0-15.083C398.042,254.958,391.292,254.958,387.125,259.125z"/>
		</g>
	</g>
</g>
<g>
</g>
<g>
</g>
<g>
</g>
<g>
</g>
<g>
</g>
<g>
</g>
<g>
</g>
<g>
</g>
<g>
</g>
<g>
</g>
<g>
</g>
<g>
</g>
<g>
</g>
<g>
</g>
<g>
</g>
</svg>
