<?xml version="1.0" encoding="iso-8859-1"?>
<!-- Generator: Adobe Illustrator 19.0.0, SVG Export Plug-In . SVG Version: 6.00 Build 0)  -->
<svg version="1.1" id="Layer_1" xmlns="http://www.w3.org/2000/svg" xmlns:xlink="http://www.w3.org/1999/xlink" x="0px" y="0px"
	 viewBox="0 0 469.333 469.333" style="enable-background:new 0 0 469.333 469.333;" xml:space="preserve">
<g>
	<g>
		<g>
			<path d="M330.667,0c-37.063,0-71.875,14.427-98.042,40.615l-192,192C14.437,258.812,0,293.635,0,330.667
				c0,76.458,62.208,138.667,138.667,138.667c37.063,0,71.875-14.427,98.042-40.615l192-191.99
				c26.188-26.198,40.625-61.021,40.625-98.063C469.333,62.208,407.125,0,330.667,0z M221.625,413.635
				C199.479,435.792,170.021,448,138.667,448c-64.688,0-117.333-52.635-117.333-117.333c0-31.333,12.208-60.802,34.375-82.969
				l88.458-88.458l165.919,165.94L221.625,413.635z M413.625,221.646l-88.456,88.45L159.25,144.156l88.458-88.458
				c22.146-22.156,51.604-34.365,82.958-34.365C395.354,21.333,448,73.969,448,138.667C448,170.01,435.792,199.479,413.625,221.646z
				"/>
			<path d="M134.792,198.792l-64,63.99c-18.146,18.135-28.125,42.24-28.125,67.885c0,5.896,4.771,10.667,10.667,10.667
				c5.896,0,10.667-4.771,10.667-10.667c0-19.938,7.771-38.698,21.875-52.802l64-63.99c4.167-4.167,4.167-10.917,0-15.083
				C145.708,194.625,138.958,194.625,134.792,198.792z"/>
		</g>
	</g>
</g>
<g>
</g>
<g>
</g>
<g>
</g>
<g>
</g>
<g>
</g>
<g>
</g>
<g>
</g>
<g>
</g>
<g>
</g>
<g>
</g>
<g>
</g>
<g>
</g>
<g>
</g>
<g>
</g>
<g>
</g>
</svg>
