<?xml version="1.0" encoding="iso-8859-1"?>
<!-- Generator: Adobe Illustrator 19.0.0, SVG Export Plug-In . SVG Version: 6.00 Build 0)  -->
<svg version="1.1" id="Capa_1" xmlns="http://www.w3.org/2000/svg" xmlns:xlink="http://www.w3.org/1999/xlink" x="0px" y="0px"
	 viewBox="0 0 512 512" style="enable-background:new 0 0 512 512;" xml:space="preserve">
<g>
	<g>
		<path d="M444.862,109.779L338.221,3.138C336.29,1.201,333.621,0,330.667,0h-224C83.146,0,64,19.135,64,42.667v426.667
			C64,492.865,83.146,512,106.667,512h298.667C428.854,512,448,492.865,448,469.333v-352
			C448,114.379,446.799,111.71,444.862,109.779z M160,448c-17.646,0-32-14.354-32-32c0-17.646,14.354-32,32-32s32,14.354,32,32
			C192,433.646,177.646,448,160,448z M160,341.333c-17.646,0-32-14.354-32-32c0-17.646,14.354-32,32-32s32,14.354,32,32
			C192,326.979,177.646,341.333,160,341.333z M224,234.667h-42.667c-5.896,0-10.667-4.771-10.667-10.667v-32h-32
			c-5.896,0-10.667-4.771-10.667-10.667v-42.667c0-5.896,4.771-10.667,10.667-10.667h32V96c0-5.896,4.771-10.667,10.667-10.667H224
			c5.896,0,10.667,4.771,10.667,10.667v32h32c5.896,0,10.667,4.771,10.667,10.667v42.667c0,5.896-4.771,10.667-10.667,10.667h-32v32
			C234.667,229.896,229.896,234.667,224,234.667z M373.333,426.667h-128c-5.896,0-10.667-4.771-10.667-10.667
			c0-5.896,4.771-10.667,10.667-10.667h128c5.896,0,10.667,4.771,10.667,10.667C384,421.896,379.229,426.667,373.333,426.667z
			 M373.333,320h-128c-5.896,0-10.667-4.771-10.667-10.667c0-5.896,4.771-10.667,10.667-10.667h128
			c5.896,0,10.667,4.771,10.667,10.667C384,315.229,379.229,320,373.333,320z M362.667,106.667
			c-11.771,0-21.333-9.573-21.333-21.333V36.417l70.25,70.25H362.667z"/>
	</g>
</g>
<g>
</g>
<g>
</g>
<g>
</g>
<g>
</g>
<g>
</g>
<g>
</g>
<g>
</g>
<g>
</g>
<g>
</g>
<g>
</g>
<g>
</g>
<g>
</g>
<g>
</g>
<g>
</g>
<g>
</g>
</svg>
