<?xml version="1.0"?>
<svg xmlns="http://www.w3.org/2000/svg" xmlns:xlink="http://www.w3.org/1999/xlink" version="1.1" id="Capa_1" x="0px" y="0px" viewBox="0 0 390.289 390.289" style="enable-background:new 0 0 390.289 390.289;" xml:space="preserve" width="512px" height="512px" class=""><g><script xmlns="" id="tinyhippos-injected"/><g>
	<g id="Guides_For_Artboard_23_">
	</g>
	<g id="Artwork_22_">
	</g>
	<g id="Layer_2_22_">
		<g>
			<path style="fill:#FFFFFF" d="M308.679,28.746c-0.651,5.487-5.312,9.746-10.976,9.746h-26.34     c-0.576,7.128-6.532,12.737-13.81,12.737H138.021c-7.277,0-13.234-5.609-13.809-12.737H92.585     c-5.664,0-10.325-4.259-10.976-9.746c-9.474,4.153-16.022,13.043-16.022,23.342v178.63v133.726     c0,14.274,12.577,25.845,28.09,25.845H265.1v-31.512c0-15.514,11.57-28.09,25.845-28.09h33.757v-99.969V52.088     C324.701,41.789,318.153,32.899,308.679,28.746z M131,291.179c0,3.883-3.148,7.031-7.031,7.031h-23.201     c-3.883,0-7.03-3.148-7.03-7.031v-23.2c0-3.883,3.147-7.031,7.03-7.031h23.201c3.883,0,7.031,3.148,7.031,7.031V291.179z      M131,235.286c0,3.883-3.148,7.03-7.031,7.03h-23.201c-3.883,0-7.03-3.147-7.03-7.03v-23.201c0-3.882,3.147-7.03,7.03-7.03     h23.201c3.883,0,7.031,3.148,7.031,7.03V235.286z M131,179.394c0,3.883-3.148,7.03-7.031,7.03h-23.201     c-3.883,0-7.03-3.147-7.03-7.03v-23.201c0-3.882,3.147-7.03,7.03-7.03h23.201c3.883,0,7.031,3.148,7.031,7.03V179.394z      M131,123.501c0,3.882-3.148,7.03-7.031,7.03h-23.201c-3.883,0-7.03-3.148-7.03-7.03V100.3c0-3.882,3.147-7.03,7.03-7.03h23.201     c3.883,0,7.031,3.148,7.031,7.03V123.501z M219.948,343.28c0,3.493-2.83,6.324-6.325,6.324h-10.039v10.04     c0,3.493-2.831,6.326-6.324,6.326h-3.652h-0.576c-3.493,0-6.325-2.833-6.325-6.326v-10.04h-10.041     c-3.491,0-6.323-2.831-6.323-6.324v-4.229c0-3.492,2.832-6.323,6.323-6.323h10.041v-10.041c0-3.492,2.832-6.324,6.325-6.324     h0.576h3.652c3.493,0,6.324,2.832,6.324,6.324v10.041h10.039c3.495,0,6.325,2.831,6.325,6.323V343.28z M297.603,296.516H148.784     c-2.339,0-4.234-1.896-4.234-4.233c0-2.34,1.896-4.235,4.234-4.235h148.819c2.339,0,4.234,1.896,4.234,4.235     C301.837,294.62,299.942,296.516,297.603,296.516z M297.603,240.623H148.784c-2.339,0-4.234-1.896-4.234-4.233     c0-2.34,1.896-4.235,4.234-4.235h148.819c2.339,0,4.234,1.896,4.234,4.235C301.837,238.728,299.942,240.623,297.603,240.623z      M297.603,184.73H148.784c-2.339,0-4.234-1.896-4.234-4.234s1.896-4.234,4.234-4.234h148.819c2.339,0,4.234,1.896,4.234,4.234     S299.942,184.73,297.603,184.73z M297.603,128.838H148.784c-2.339,0-4.234-1.896-4.234-4.234s1.896-4.235,4.234-4.235h148.819     c2.339,0,4.234,1.896,4.234,4.235S299.942,128.838,297.603,128.838z" data-original="#F7F1E6" class="" data-old_color="#F7F1E6"/>
			<path style="fill:#E0DCD3" d="M265.1,358.776v31.512l59.602-59.602h-33.757C276.67,330.687,265.1,343.263,265.1,358.776z" data-original="#E0DCD3" class=""/>
			<path style="fill:#1273EB" d="M270.364,39.492h27.34c5.664,0,10.324-4.259,10.976-9.746c0.051-0.433,0.085-0.869,0.085-1.314     c0-6.109-4.951-11.062-11.061-11.062h-27.283C270.42,17.37,270.393,39.119,270.364,39.492z" data-original="#77A7A2" class="" data-old_color="#77A7A2"/>
			<path style="fill:#1273EB" d="M92.585,39.492h32.627c-0.03-0.373-0.057-22.122-0.057-22.122h-32.57     c-6.109,0-11.061,4.952-11.061,11.062c0,0.445,0.034,0.883,0.085,1.314C82.261,35.233,86.921,39.492,92.585,39.492z" data-original="#77A7A2" class="" data-old_color="#77A7A2"/>
			<path style="fill:#DEC8AE;" d="M123.969,93.27h-23.201c-3.883,0-7.03,3.148-7.03,7.03v23.201c0,3.882,3.147,7.03,7.03,7.03     h23.201c3.883,0,7.031-3.148,7.031-7.03V100.3C131,96.418,127.852,93.27,123.969,93.27z" data-original="#DEC8AE"/>
			<path style="fill:#DEC8AE;" d="M297.603,120.368H148.784c-2.339,0-4.234,1.896-4.234,4.235s1.896,4.234,4.234,4.234h148.819     c2.339,0,4.234-1.896,4.234-4.234S299.942,120.368,297.603,120.368z" data-original="#DEC8AE"/>
			<path style="fill:#DEC8AE;" d="M123.969,149.162h-23.201c-3.883,0-7.03,3.148-7.03,7.03v23.201c0,3.883,3.147,7.03,7.03,7.03     h23.201c3.883,0,7.031-3.147,7.031-7.03v-23.201C131,152.311,127.852,149.162,123.969,149.162z" data-original="#DEC8AE"/>
			<path style="fill:#DEC8AE;" d="M297.603,176.262H148.784c-2.339,0-4.234,1.896-4.234,4.234s1.896,4.234,4.234,4.234h148.819     c2.339,0,4.234-1.896,4.234-4.234S299.942,176.262,297.603,176.262z" data-original="#DEC8AE"/>
			<path style="fill:#DEC8AE;" d="M123.969,205.055h-23.201c-3.883,0-7.03,3.148-7.03,7.03v23.201c0,3.883,3.147,7.03,7.03,7.03     h23.201c3.883,0,7.031-3.147,7.031-7.03v-23.201C131,208.203,127.852,205.055,123.969,205.055z" data-original="#DEC8AE"/>
			<path style="fill:#DEC8AE;" d="M297.603,232.154H148.784c-2.339,0-4.234,1.896-4.234,4.235c0,2.338,1.896,4.233,4.234,4.233     h148.819c2.339,0,4.234-1.896,4.234-4.233C301.837,234.05,299.942,232.154,297.603,232.154z" data-original="#DEC8AE"/>
			<path style="fill:#DEC8AE;" d="M123.969,260.947h-23.201c-3.883,0-7.03,3.148-7.03,7.031v23.2c0,3.883,3.147,7.031,7.03,7.031     h23.201c3.883,0,7.031-3.148,7.031-7.031v-23.2C131,264.096,127.852,260.947,123.969,260.947z" data-original="#DEC8AE"/>
			<path style="fill:#DEC8AE;" d="M297.603,288.047H148.784c-2.339,0-4.234,1.896-4.234,4.235c0,2.338,1.896,4.233,4.234,4.233     h148.819c2.339,0,4.234-1.896,4.234-4.233C301.837,289.942,299.942,288.047,297.603,288.047z" data-original="#DEC8AE"/>
			<path style="fill:#56A0FB" d="M124.155,38.364c0,0.381,0.027,0.755,0.057,1.128c0.575,7.128,6.532,12.737,13.809,12.737h119.533     c7.277,0,13.233-5.609,13.81-12.737c0.029-0.373,0.057-0.747,0.057-1.128V17.37v-3.504C271.421,6.208,265.213,0,257.555,0     H138.021c-7.658,0-13.866,6.208-13.866,13.866v3.504V38.364z" data-original="#81B6B2" class="active-path" data-old_color="#81B6B2"/>
			<path style="fill:#E74424" d="M213.622,332.728h-10.039v-10.041c0-3.492-2.831-6.324-6.324-6.324h-3.652h-0.576     c-3.493,0-6.325,2.832-6.325,6.324v10.041h-10.041c-3.491,0-6.323,2.831-6.323,6.323v4.229c0,3.493,2.832,6.324,6.323,6.324     h10.041v10.04c0,3.493,2.832,6.326,6.325,6.326h0.576h3.652c3.493,0,6.324-2.833,6.324-6.326v-10.04h10.039     c3.495,0,6.325-2.831,6.325-6.324v-4.229C219.948,335.559,217.117,332.728,213.622,332.728z" data-original="#E74424" class="" data-old_color="#E74424"/>
		</g>
	</g>
</g></g> </svg>
