<svg height="512" viewBox="0 0 64 64" width="512" xmlns="http://www.w3.org/2000/svg"><g fill="#939598"><path d="m23 17h-2v-10a3 3 0 0 1 3-3h1v2h-1a1 1 0 0 0 -1 1z"/><path d="m43 17h-2v-10a1 1 0 0 0 -1-1h-1v-2h1a3 3 0 0 1 3 3z"/><path d="m46 62h-3a12.013 12.013 0 0 1 -12-12v-8h-14v-2h14v-9h2v9h13a11 11 0 0 1 0 22zm-13-20v8a10.011 10.011 0 0 0 10 10h3a9 9 0 0 0 0-18z"/></g><path d="m26 7a2 2 0 0 0 0-4 1 1 0 0 0 -1 1v2a1 1 0 0 0 1 1z" fill="#2488ff"/><path d="m38 3a2 2 0 0 0 0 4 1 1 0 0 0 1-1v-2a1 1 0 0 0 -1-1z" fill="#2488ff"/><path d="m13 36a5 5 0 1 0 5 5 5 5 0 0 0 -5-5zm0 6a1 1 0 1 1 1-1 1 1 0 0 1 -1 1z" fill="#006df0"/><circle cx="13" cy="41" fill="#f1f2f2" r="1"/><path d="m44 20v-2a2 2 0 0 0 -4 0v2a8.009 8.009 0 0 1 -8.548 7.982 8.19 8.19 0 0 1 -7.452-8.265v-1.717a2 2 0 0 0 -4 0v2a12 12 0 0 0 24 0z" fill="#006df0"/></svg>