<?xml version="1.0" encoding="iso-8859-1"?>
<!-- Generator: Adobe Illustrator 18.0.0, SVG Export Plug-In . SVG Version: 6.00 Build 0)  -->
<!DOCTYPE svg PUBLIC "-//W3C//DTD SVG 1.1//EN" "http://www.w3.org/Graphics/SVG/1.1/DTD/svg11.dtd">
<svg version="1.1" id="Capa_1" xmlns="http://www.w3.org/2000/svg" xmlns:xlink="http://www.w3.org/1999/xlink" x="0px" y="0px"
	 viewBox="0 0 58.45 58.45" style="enable-background:new 0 0 58.45 58.45;" xml:space="preserve">
<g>
	<path style="fill:#DFF2F8;" d="M49.048,39.148L18.601,8.702l-9.9,9.899l10.677,10.677v0l3.535-3.536
		c0.391-0.391,1.023-0.391,1.414,0c0.391,0.39,0.391,1.023,0,1.414l-3.535,3.536h0l1.414,1.414v0l3.536-3.535
		c0.391-0.391,1.023-0.391,1.414,0s0.391,1.024,0,1.414l-3.536,3.535h0l15.527,15.527c1.54,1.54,4.036,1.54,5.575,0l4.324-4.324
		C50.587,43.184,50.587,40.688,49.048,39.148z"/>
	<path style="fill:#A1C8EC;" d="M39.148,49.048c1.54,1.54,4.036,1.54,5.575,0l4.324-4.324c1.54-1.54,1.54-4.036,0-5.575
		l-4.698-4.698H24.55L39.148,49.048z"/>
	
		<rect x="6.806" y="4.368" transform="matrix(0.7071 -0.7071 0.7071 0.7071 -4.0618 9.806)" style="fill:#AFB6BB;" width="6" height="10.877"/>
	<path style="fill:#D8EAEF;" d="M5.874,22.43c-0.256,0-0.512-0.098-0.707-0.293c-0.391-0.391-0.391-1.023,0-1.414L20.723,5.167
		c0.391-0.391,1.023-0.391,1.414,0s0.391,1.023,0,1.414L6.581,22.137C6.385,22.332,6.129,22.43,5.874,22.43z"/>
	<path style="fill:#7FABDA;" d="M24.328,27.157c0.391-0.391,0.391-1.024,0-1.414c-0.391-0.391-1.023-0.391-1.414,0l-3.535,3.536v0
		l1.414,1.414h0L24.328,27.157z"/>
	<path style="fill:#7FABDA;" d="M27.157,29.985c0.391-0.39,0.391-1.023,0-1.414s-1.023-0.391-1.414,0l-3.536,3.535v0l1.414,1.414h0
		L27.157,29.985z"/>
	<path style="fill:#949493;" d="M57.45,58.45c-0.256,0-0.512-0.098-0.707-0.293l-6.321-6.321c-0.391-0.391-0.391-1.023,0-1.414
		s1.023-0.391,1.414,0l6.321,6.321c0.391,0.391,0.391,1.023,0,1.414C57.961,58.352,57.706,58.45,57.45,58.45z"/>
	<polygon style="fill:#7FABDA;" points="23.935,19.692 16.481,12.215 12.238,16.458 19.692,23.935 	"/>
	
		<rect x="20.814" y="14.814" transform="matrix(0.7071 0.7071 -0.7071 0.7071 21.8135 -9.0354)" style="fill:#556080;" width="2" height="14"/>
	<path style="fill:#E7ECED;" d="M1,11.899c-0.256,0-0.512-0.098-0.707-0.293c-0.391-0.391-0.391-1.023,0-1.414l9.899-9.899
		c0.391-0.391,1.023-0.391,1.414,0s0.391,1.023,0,1.414l-9.899,9.899C1.512,11.802,1.256,11.899,1,11.899z"/>
	<circle style="fill:#FFFFFF;" cx="36.45" cy="39.45" r="1"/>
	<circle style="fill:#FFFFFF;" cx="41.45" cy="45.45" r="1"/>
	<circle style="fill:#FFFFFF;" cx="43.45" cy="40.45" r="1"/>
	<polygon style="fill:#25AE88;" points="51.835,50.421 50.421,51.835 44.764,49.007 49.007,44.764 	"/>
</g>
<g>
</g>
<g>
</g>
<g>
</g>
<g>
</g>
<g>
</g>
<g>
</g>
<g>
</g>
<g>
</g>
<g>
</g>
<g>
</g>
<g>
</g>
<g>
</g>
<g>
</g>
<g>
</g>
<g>
</g>
</svg>
