<?xml version="1.0" encoding="iso-8859-1"?>
<!-- Generator: Adobe Illustrator 19.0.0, SVG Export Plug-In . SVG Version: 6.00 Build 0)  -->
<svg version="1.1" id="Capa_1" xmlns="http://www.w3.org/2000/svg" xmlns:xlink="http://www.w3.org/1999/xlink" x="0px" y="0px"
	 viewBox="0 0 385.183 385.183" style="enable-background:new 0 0 385.183 385.183;" xml:space="preserve">
<g>
	<g id="Guides_For_Artboard_1_">
	</g>
	<g id="Artwork_1_">
	</g>
	<g id="Layer_2_1_">
		<g>
			<path style="fill:#E74424;" d="M346.522,146.375H304.17l29.946-29.946c15.1-15.1,15.1-39.58,0-54.679l-10.682-10.682
				c-15.099-15.1-39.579-15.1-54.679,0l-29.946,29.946v-42.35C238.809,17.31,221.499,0,200.145,0h-15.106
				c-21.354,0-38.663,17.311-38.663,38.664v42.352l-29.948-29.947c-15.1-15.1-39.579-15.1-54.678,0L51.069,61.751
				c-15.1,15.099-15.101,39.578-0.001,54.677l29.947,29.948h-42.35c-21.354,0-38.664,17.31-38.664,38.664v15.104
				c0,21.354,17.309,38.663,38.664,38.663h42.35l-29.947,29.948c-15.1,15.1-15.099,39.578,0,54.677l10.682,10.681
				c15.099,15.101,39.578,15.102,54.678,0.002l29.947-29.947v42.351c0,21.355,17.309,38.664,38.663,38.664h15.106
				c21.354,0,38.664-17.309,38.664-38.664v-42.35l29.945,29.944c15.099,15.101,39.58,15.101,54.679,0l10.681-10.681
				c15.1-15.099,15.1-39.578,0-54.679l-29.945-29.946h42.352c21.354,0,38.663-17.309,38.663-38.663V185.04
				C385.185,163.684,367.876,146.375,346.522,146.375z M265.164,162.762c0,0-8.233,8.538-21.649,2.562c0,0-6.891,6.273-17.989,0.541
				c0,0-8.232,6.274-16.953,0.862c0,0-5.16,3.46-9.486,2.904v31.44c0.231-0.032,0.478-0.066,0.695-0.096
				c1.966-0.426,9.349-2.087,18.243-4.551c9.695-2.57,20.367-6.725,21.954-8.843c-0.123-0.122-0.367-0.251-0.611-0.374
				c-0.914-0.488-2.377-0.906-4.147-1.28c-3.536-0.731-8.354-1.099-13.232-1.28c-9.698-0.358-10.07,0.035-11.587,0.061
				c-2.596,0.043-7.216-0.988-7.135-4.992c0.081-4.005,3.328-5.328,5.84-5.337c2.512-0.01,1.845,0.022,7.211,0.092
				c8.902,0.67,36.162-1.532,39.577,12.799c0,0.419,0.061,0.67,0.121,1.044c-1.157,12.486-27.075,17.929-45.796,21.634
				c6.342,4.406,9.757,10.077,11.097,17.396c0.672,7.805-5.549,15.245-19.956,23.523c10.93,7.745,18.128,15.063,17.517,23.859
				c-0.975,7.196-7.317,16.77-19.758,22.807c-0.06,0-0.12,0-0.12,0s8.72-13.293,9.269-20.566c0.498-3.69-2.331-10.42-9.181-15.763
				v25.974c0,3.488-2.824,6.315-6.308,6.315c-3.483,0-6.309-2.828-6.309-6.315c0-0.095,0.01-0.186,0.014-0.278v-26.817
				c-0.642,0.436-1.282,0.942-1.917,1.541c-7.583,6.304-9.399,11.611-8.864,15.344c0.549,7.273,9.269,20.566,9.269,20.566h-0.06
				c0,0,0,0-0.061,0c-12.44-6.037-18.782-15.61-19.758-22.807c-0.61-8.797,6.586-16.114,17.563-23.859
				c-14.454-8.278-20.673-15.719-20.002-23.523c1.341-7.38,4.756-13.051,11.098-17.396c-18.721-3.705-44.639-9.147-45.797-21.634
				c0.062-0.374,0.122-0.625,0.122-1.044c3.415-14.331,30.675-12.129,39.577-12.799c5.366-0.069,3.679-0.237,7.642,0.304
				c2.5,0.504,5.69,0.831,5.505,5.312c-0.185,4.479-6.079,4.553-7.231,4.622c-1.153,0.068-1.89-0.419-11.586-0.121
				c-4.878,0.242-9.697,0.609-13.295,1.341c-1.707,0.374-3.232,0.792-4.084,1.28c-0.306,0.123-0.488,0.252-0.611,0.374
				c1.587,2.118,12.258,6.272,21.954,8.843c10.125,2.805,14.86,3.777,19.698,4.878c0.275,0.063,0.561,0.097,0.841,0.146v-31.982
				c-5.578,0.57-9.866-2.74-9.866-2.74c-8.782,5.412-16.953-0.862-16.953-0.862c-11.099,5.732-18.051-0.541-18.051-0.541
				c-13.354,5.977-21.587-2.562-21.587-2.562c-15.427,2.805-21.1-10.009-21.1-10.009c28.541,2.562,51.958-25.43,57.934-30.3
				c5.854-4.825,10.001-3.721,15.916,6.883c3.819,6.811,9.852,7.763,13.709,7.622v-0.483c-4.654-2.342-7.854-7.148-7.854-12.714
				c0-7.862,6.374-14.236,14.236-14.236s14.236,6.374,14.236,14.236c0,5.629-3.274,10.48-8.016,12.791v0.418
				c3.864,0.062,9.634-1.045,13.329-7.634c5.914-10.604,10.001-11.708,15.916-6.883c5.976,4.87,29.394,32.861,57.933,30.3
				C286.264,152.754,280.591,165.567,265.164,162.762z"/>
			<path style="fill:#E74424;" d="M175.148,228.348c0,2.817,1.531,6.142,4.824,8.69c2.577,1.995,4.119,2.608,6.512,4.109v-25.332
				C174.361,220.571,175.148,225.6,175.148,228.348z"/>
			<path style="fill:#E74424;" d="M199.086,240.513c1.63-0.934,3.325-2.122,4.912-3.475c3.169-2.7,4.839-5.526,4.839-8.212
				c0-2.555,0.688-7.664-9.751-12.317L199.086,240.513L199.086,240.513z"/>
			<path style="fill:#F7F1E6;" d="M228.331,122.454c-5.915-4.825-10.001-3.721-15.916,6.883c-3.695,6.589-9.465,7.695-13.329,7.634
				v-0.418c4.741-2.311,8.016-7.162,8.016-12.791c0-7.862-6.374-14.236-14.236-14.236s-14.236,6.374-14.236,14.236
				c0,5.565,3.2,10.372,7.854,12.714v0.483c-3.857,0.141-9.89-0.812-13.709-7.622c-5.914-10.604-10.061-11.708-15.916-6.883
				c-5.976,4.87-29.393,32.861-57.934,30.3c0,0,5.673,12.813,21.1,10.009c0,0,8.233,8.538,21.587,2.562
				c0,0,6.952,6.273,18.051,0.541c0,0,8.171,6.274,16.953,0.862c0,0,4.289,3.311,9.866,2.74v31.982
				c-0.28-0.05-0.565-0.084-0.841-0.146c-4.837-1.101-9.573-2.073-19.698-4.878c-9.696-2.57-20.367-6.725-21.954-8.843
				c0.124-0.122,0.306-0.251,0.611-0.374c0.853-0.488,2.378-0.906,4.084-1.28c3.598-0.731,8.417-1.099,13.295-1.341
				c9.697-0.298,10.434,0.189,11.586,0.121c1.152-0.069,7.046-0.143,7.231-4.622c0.185-4.48-3.005-4.808-5.505-5.312
				c-3.962-0.541-2.276-0.373-7.642-0.304c-8.902,0.67-36.162-1.532-39.577,12.799c0,0.419-0.06,0.67-0.122,1.044
				c1.158,12.486,27.076,17.929,45.797,21.634c-6.342,4.345-9.757,10.016-11.098,17.396c-0.671,7.805,5.549,15.245,20.002,23.523
				c-10.977,7.745-18.173,15.063-17.563,23.859c0.976,7.196,7.318,16.77,19.758,22.807c0.061,0,0.061,0,0.061,0h0.06
				c0,0-8.719-13.293-9.269-20.566c-0.535-3.732,1.281-9.04,8.864-15.344c0.635-0.599,1.275-1.105,1.917-1.541v26.817
				c-0.004,0.093-0.014,0.184-0.014,0.278c0,3.487,2.825,6.315,6.309,6.315s6.308-2.827,6.308-6.315v-25.973
				c6.85,5.343,9.679,12.072,9.181,15.763c-0.549,7.273-9.269,20.566-9.269,20.566s0.06,0,0.12,0
				c12.441-6.037,18.783-15.61,19.758-22.807c0.612-8.797-6.586-16.114-17.517-23.859c14.407-8.278,20.628-15.719,19.956-23.523
				c-1.34-7.318-4.755-12.989-11.097-17.396c18.721-3.705,44.639-9.147,45.796-21.634c-0.061-0.374-0.121-0.625-0.121-1.044
				c-3.415-14.331-30.675-12.129-39.577-12.799c-5.367-0.069-4.7-0.102-7.211-0.092c-2.513,0.009-5.759,1.332-5.84,5.337
				c-0.081,4.004,4.539,5.035,7.135,4.992c1.518-0.025,1.89-0.419,11.587-0.061c4.878,0.182,9.696,0.549,13.232,1.28
				c1.77,0.374,3.233,0.792,4.147,1.28c0.244,0.123,0.488,0.252,0.611,0.374c-1.587,2.118-12.258,6.272-21.954,8.843
				c-8.895,2.464-16.277,4.125-18.243,4.551c-0.218,0.029-0.464,0.063-0.695,0.096v-31.44c4.326,0.556,9.486-2.904,9.486-2.904
				c8.721,5.412,16.953-0.862,16.953-0.862c11.098,5.732,17.989-0.541,17.989-0.541c13.417,5.977,21.649-2.562,21.649-2.562
				c15.427,2.805,21.1-10.009,21.1-10.009C257.724,155.315,234.307,127.324,228.331,122.454z M186.484,241.148
				c-2.393-1.501-3.935-2.114-6.512-4.109c-3.293-2.549-4.824-5.873-4.824-8.69c0-2.748-0.787-7.777,11.336-12.532V241.148z
				 M208.837,228.827c0,2.686-1.67,5.512-4.839,8.212c-1.587,1.353-3.282,2.541-4.912,3.475V216.51
				C209.526,221.163,208.837,226.272,208.837,228.827z"/>
		</g>
	</g>
</g>
<g>
</g>
<g>
</g>
<g>
</g>
<g>
</g>
<g>
</g>
<g>
</g>
<g>
</g>
<g>
</g>
<g>
</g>
<g>
</g>
<g>
</g>
<g>
</g>
<g>
</g>
<g>
</g>
<g>
</g>
</svg>
