<svg height="512" viewBox="0 0 58 58" width="512" xmlns="http://www.w3.org/2000/svg"><g id="Page-1" fill="none" fill-rule="evenodd"><g id="034---Vitamins-Schedule" fill-rule="nonzero" transform="translate(0 -1)"><path id="Shape" d="m34 53.32v3.68c.0032948 1.1032019.8967981 1.9967052 2 2h20c1.1032019-.0032948 1.9967052-.8967981 2-2v-15.45c-.0067748-1.4801015-1.0500165-2.7528565-2.5-3.05-1.4527368-.2925742-2.4982461-1.5680955-2.5-3.05v-1.45c1.1032019-.0032948 1.9967052-.8967981 2-2v-4c-.0032948-1.1032019-.8967981-1.9967052-2-2h-14c-1.1032019.0032948-1.9967052.8967981-2 2v4c.0032948 1.1032019.8967981 1.9967052 2 2v1.45c-.0067748 1.4801015-1.0500165 2.7528565-2.5 3.05-1.3683522.2754661-2.3860769 1.4280699-2.49 2.82z" fill="#f29c1f"/><path id="Shape" d="m24.76 32h-8.26c-1.3807119 0-2.5-1.1192881-2.5-2.5s1.1192881-2.5 2.5-2.5h8.26z" fill="#95a5a5"/><path id="Shape" d="m26 25.76v-12.26c0-1.3807119 1.1192881-2.5 2.5-2.5s2.5 1.1192881 2.5 2.5v12.26z" fill="#95a5a5"/><path id="Shape" d="m53.19 21.6-.05.01c-1.2368232.3958689-2.5707995-.2211494-3.07-1.42-3.658816-8.5027544-11.9696426-14.06429686-21.2251454-14.2037073-9.2555027-.13941043-17.7300619 5.1693032-21.64330445 13.5580039-3.91324254 8.3887007-2.53557346 18.2933775 3.51844985 25.2957034l2.37-2.37c.2723344-.2713955.6761479-.3626248 1.0387048-.2346635.3625568.1279612.6196462.4524503.6612952.8346635l.66 5.96.41 3.73c.0318964.300388-.0737025.5990966-.2873029.8126971-.2136005.2136004-.5123091.3191993-.8126971.2873029l-1.24-.14-8.41-1.38c-.38279496-.0614266-.69559143-.3385752-.8026642-.7111884-.10707277-.3726133.0108748-.7735389.3026642-1.0288116l2.57-2.22c-7.48027774-8.4420423-9.27538239-20.5024789-4.57795841-30.7570799 4.69742397-10.25460105 15.00270211-16.77209862 26.28099401-16.62122204 11.278292.15087659 21.4055364 6.94171249 25.8269644 17.31830194.2625242.6345786.2476066 1.3500458-.0411399 1.9731303-.2887465.6230846-.8249887 1.0969622-1.4788601 1.3068697z" fill="#ff5364"/><path id="Shape" d="m33 29.5c.0010619 1.9284924-1.2268198 3.6432716-3.0528733 4.2634432-1.8260535.6201715-3.8442754.0078469-5.0178906-1.5224183-1.1736151-1.5302651-1.2416828-3.6382329-.1692361-5.2410249.323968-.4939596.7460404-.916032 1.24-1.24 1.380349-.9222846 3.1563644-1.0096751 4.6205897-.2273604 1.4642254.7823147 2.3787989 2.3072484 2.3794103 3.9673604z" fill="#bdc3c7"/><rect id="Rectangle-path" fill="#bdc3c7" height="8" rx="2" width="18" x="37" y="26"/><path id="Shape" d="m58 44v10h-14c-1.1032019-.0032948-1.9967052-.8967981-2-2v-6c.0032948-1.1032019.8967981-1.9967052 2-2z" fill="#ecf0f1"/><path id="Shape" d="m36.27 42.73c-1.1009234-1.103953-2.5959155-1.7244026-4.155-1.7244026s-3.0540766.6204496-4.155 1.7244026l-3.12 3.11-3.11 3.12c-2.2947431 2.2947431-2.2947431 6.0152569 0 8.31s6.0152569 2.2947431 8.31 0l3.12-3.11.84-.84 2.27-2.28c1.107163-1.0992135 1.7298333-2.5948461 1.7298333-4.155s-.6226703-3.0557865-1.7298333-4.155z" fill="#3b97d3"/><path id="Shape" d="m38 46.88c.0006227 1.5617781-.6221092 3.0592142-1.73 4.16l-2.27 2.28-.84.84-8.32-8.32 3.12-3.11c1.682225-1.6771454 4.2078039-2.178501 6.4030932-1.2710856 2.1952892.9074153 3.6297983 3.0456599 3.6369068 5.4210856z" fill="#ff5364"/></g></g></svg>