<?xml version="1.0" encoding="iso-8859-1"?>
<!-- Generator: Adobe Illustrator 19.0.0, SVG Export Plug-In . SVG Version: 6.00 Build 0)  -->
<svg version="1.1" id="Capa_1" xmlns="http://www.w3.org/2000/svg" xmlns:xlink="http://www.w3.org/1999/xlink" x="0px" y="0px"
	 viewBox="0 0 328.8 328.8" style="enable-background:new 0 0 328.8 328.8;" xml:space="preserve">
<path style="fill:#F4F5F7;" d="M271,6l-24,293.2c-1.2,12.8-12.4,23.2-25.2,23.2H106.2c-12.8,0-24-10.4-25.2-23.2L57,6
	C57,6,271,6,271,6z"/>
<path style="fill:#FFFFFF;" d="M109.8,299.6L85.8,6.4H57.4l24,293.2c1.2,12.8,12.4,23.2,25.2,23.2H135
	C121.8,322.8,110.6,312.4,109.8,299.6z"/>
<path style="fill:#50C1E9;" d="M226.2,266.8l10.4-155.2c-25.2,8.8-50.8,8-72.8,0.4c-30.8-11.6-72,4.4-72,4.4L103,266.8H226.2z"/>
<path style="fill:#87D3E8;" d="M151,108.4c-28.4-4-59.2,7.6-59.2,7.6L103,266.4h26l-11.6-150C117.4,116.4,132.2,110.8,151,108.4z"/>
<g>
	<path style="fill:#56596A;" d="M271,0H57.4c-1.6,0-3.2,0.8-4.4,2s-1.6,2.8-1.6,4.8l24,293.2c1.2,16,15.2,28.8,31.2,28.8h115.6
		c16,0,30-12.8,31.2-28.8l24-293.2c0-1.6-0.4-3.2-1.6-4.8C274.6,0.8,273,0,271,0z M222.2,316.4h-116c-9.2,0-18-7.6-18.8-17.2H241
		C239.8,308.8,231.4,316.4,222.2,316.4z M242.2,287.2h-156L63.8,12.4h200.8L242.2,287.2z"/>
	<path style="fill:#56596A;" d="M97,267.2c0.4,3.2,2.8,5.6,6,5.6h123.2c3.2,0,6-2.4,6-5.6L242.6,112c0-2-0.8-4-2.4-5.2
		s-3.6-1.6-5.6-0.8c-22.8,8-47.2,8-68.8,0.4c-8-2.8-17.2-4.4-27.6-4.4c-25.2,0-48,8.8-48.8,9.2c-2.4,0.8-4,3.6-4,6L97,267.2z
		 M138.6,114c8.8,0,16.8,1.2,23.6,3.6c21.2,7.6,45.2,8.4,68,2.4l-9.6,140.8h-112l-10.8-140C105.4,118.4,121.8,114,138.6,114z"/>
</g>
<g>
</g>
<g>
</g>
<g>
</g>
<g>
</g>
<g>
</g>
<g>
</g>
<g>
</g>
<g>
</g>
<g>
</g>
<g>
</g>
<g>
</g>
<g>
</g>
<g>
</g>
<g>
</g>
<g>
</g>
</svg>
